<svg xmlns="http://www.w3.org/2000/svg" xmlns:xlink="http://www.w3.org/1999/xlink" width="500" zoomAndPan="magnify" viewBox="0 0 375 374.999991" height="500" preserveAspectRatio="xMidYMid meet" version="1.0"><defs><clipPath id="a54ad286fa"><path d="M 171 206 L 333 206 L 333 370.921875 L 171 370.921875 Z M 171 206 " clip-rule="nonzero"/></clipPath><clipPath id="4543d2dd17"><path d="M 42 4.171875 L 333 4.171875 L 333 369 L 42 369 Z M 42 4.171875 " clip-rule="nonzero"/></clipPath><clipPath id="077996802b"><path d="M 176 210 L 239 210 L 239 370.921875 L 176 370.921875 Z M 176 210 " clip-rule="nonzero"/></clipPath></defs><path fill="#fcfefd" d="M 201.316406 44.601562 L 204.222656 46.886719 L 205.085938 53.464844 L 187.882812 92.082031 L 185.296875 94.378906 L 178.707031 85.503906 L 181.867188 69.195312 Z M 201.316406 44.601562 " fill-opacity="1" fill-rule="nonzero"/><path fill="#fcfefd" d="M 64.910156 205.929688 C 64.910156 205.929688 66.363281 206.292969 67.359375 202.40625 L 70.550781 198.507812 C 70.550781 198.507812 84.527344 178.847656 87.777344 169.367188 L 85.84375 166.75 L 91.292969 156.167969 L 85.277344 153.59375 L 60.050781 179.339844 L 50.882812 194.78125 L 58.328125 200.21875 Z M 64.910156 205.929688 " fill-opacity="1" fill-rule="nonzero"/><path fill="#fcfefd" d="M 279.890625 160.449219 C 279.890625 160.449219 279.316406 166.972656 287.125 169.644531 C 287.125 169.644531 280.894531 168.597656 276.011719 166.601562 C 276.011719 166.601562 281.945312 172.058594 290.664062 175.761719 C 290.664062 175.761719 277.882812 173.894531 273.011719 172.175781 L 263.695312 161.164062 L 246.492188 154.585938 L 231.585938 156.15625 L 236.851562 145.820312 C 236.851562 145.820312 241.40625 144.035156 243.199219 143.210938 C 243.199219 143.210938 269.71875 140.425781 279.890625 160.449219 Z M 279.890625 160.449219 " fill-opacity="1" fill-rule="nonzero"/><g clip-path="url(#a54ad286fa)"><path fill="#20235a" d="M 310.492188 283.398438 C 312.78125 288.726562 314.511719 293.585938 315.558594 298.945312 C 314.488281 298.199219 313.71875 297.609375 312.917969 297.097656 C 306.210938 292.792969 298.699219 290.636719 290.949219 289.34375 C 282.082031 287.871094 273.449219 285.808594 265.605469 281.230469 C 262.242188 279.265625 259.183594 276.9375 256.78125 273.796875 C 263.574219 269.3125 277.5 267.453125 290.671875 269.40625 C 308.644531 272.085938 322.34375 281.421875 332.332031 296.808594 C 332.332031 296.808594 328.058594 285.308594 325.046875 282.296875 L 303.546875 268.5625 L 243.347656 256.976562 L 208.953125 232.53125 L 200.351562 231.238281 L 190.03125 221.800781 C 190.03125 221.800781 181.429688 204.210938 171.109375 207.210938 C 171.109375 207.210938 168.222656 313.019531 206.488281 367.941406 C 206.488281 367.941406 207.449219 368.175781 209.199219 368.496094 C 208.773438 367.621094 208.441406 366.917969 208.078125 366.222656 C 202.703125 355.820312 198.121094 345.089844 194.335938 334.015625 C 185.457031 307.992188 181.738281 281.070312 180.210938 253.761719 C 179.71875 244.84375 179.453125 235.917969 178.628906 227.023438 C 178.140625 221.671875 177.371094 216.355469 176.332031 210.652344 C 180.542969 214.292969 184.15625 217.839844 185.726562 222.984375 C 186.953125 227.011719 187.082031 231.164062 187.222656 235.320312 C 187.617188 247.429688 187.992188 259.527344 189.242188 271.605469 C 191.429688 292.6875 196.558594 313 204.636719 332.585938 C 205.386719 334.390625 206.082031 336.257812 207.542969 337.753906 C 204.96875 323.710938 200.4375 310.0625 199.050781 295.792969 C 200.886719 301.894531 203.097656 307.839844 205.515625 313.714844 C 213.699219 333.621094 224.523438 351.988281 237.695312 368.988281 C 238.007812 369.382812 238.304688 369.746094 238.625 370.066406 C 248.382812 369.417969 259.527344 367.527344 270.851562 363.234375 C 270.5 362.847656 270.167969 362.496094 269.835938 362.144531 C 246.789062 337.964844 227.71875 311.023438 213.230469 280.910156 C 205.289062 264.417969 199.15625 247.28125 194.722656 229.53125 C 194.5625 228.953125 194.582031 228.347656 194.53125 227.875 C 194.625 228.152344 194.796875 228.464844 195.148438 228.675781 C 196.507812 231.15625 197.480469 233.847656 199.488281 236.238281 C 199.648438 235.703125 199.753906 235.449219 199.785156 235.191406 C 199.988281 233.535156 200.546875 233.578125 201.882812 234.433594 C 203.953125 235.757812 205.214844 237.316406 205.289062 239.878906 C 205.332031 241.234375 205.878906 242.570312 206.242188 243.90625 C 210.066406 257.628906 217.117188 269.738281 225.300781 281.21875 C 237.472656 298.304688 252.335938 312.859375 268.628906 325.996094 C 278.011719 333.554688 287.882812 340.453125 298.132812 346.808594 C 298.300781 346.914062 298.460938 347 298.621094 347.074219 C 302.148438 344.128906 305.589844 340.828125 308.890625 337.144531 C 308.367188 336.855469 307.84375 336.578125 307.320312 336.3125 C 297.007812 330.941406 286.835938 325.332031 277.222656 318.785156 C 260.09375 307.15625 243.96875 294.375 231.082031 277.960938 C 224.609375 269.714844 219.03125 260.9375 215.109375 251.167969 C 215.054688 250.699219 214.84375 250.28125 214.683594 249.9375 C 214.628906 249.855469 214.597656 249.777344 214.5625 249.695312 C 214.597656 249.769531 214.640625 249.855469 214.683594 249.9375 C 214.863281 250.214844 215.183594 250.484375 215.527344 250.730469 C 225.664062 264.472656 237.621094 276.496094 251.011719 287.015625 C 271.609375 303.183594 294.808594 314.558594 319.40625 323.25 C 322.953125 317.71875 326.242188 311.546875 329.203125 304.691406 C 326.703125 300.28125 323.667969 296.253906 320.367188 292.421875 C 317.578125 289.164062 314.46875 286.269531 310.492188 283.398438 Z M 310.492188 283.398438 " fill-opacity="1" fill-rule="nonzero"/></g><g clip-path="url(#4543d2dd17)"><path fill="#20235a" d="M 171.121094 207.222656 C 181.441406 204.222656 190.042969 221.8125 190.042969 221.8125 L 200.363281 231.25 L 208.964844 232.542969 L 243.359375 256.996094 L 303.558594 268.585938 L 325.058594 282.316406 C 328.070312 285.320312 332.34375 296.832031 332.34375 296.832031 C 333.863281 290.175781 331.371094 285.222656 326.96875 280.949219 C 322.460938 276.574219 317.097656 273.359375 311.710938 270.238281 C 307.308594 267.6875 303.730469 264.21875 299.796875 260.746094 C 301.742188 260.03125 303.335938 259.199219 304.757812 258.085938 C 310.8125 253.398438 311.53125 244.8125 306.292969 239.910156 C 303.847656 237.625 300.515625 237.039062 297.640625 238.523438 C 299.253906 238.671875 300.375 239.472656 301.453125 240.347656 C 303.945312 242.378906 304.457031 245.582031 302.695312 247.898438 C 300.910156 250.25 297.777344 250.644531 295.085938 248.859375 C 291.613281 246.554688 290.363281 241.460938 292.351562 237.347656 C 293.34375 235.296875 294.5625 233.34375 295.511719 231.273438 C 298.941406 223.816406 297.789062 217.335938 292.039062 211.515625 C 290.875 210.339844 288.769531 209.347656 288.644531 208.109375 C 288.492188 206.710938 290.148438 205.160156 290.910156 203.625 C 295.289062 194.730469 295.105469 186.175781 288.941406 178.089844 C 288.398438 177.375 287.789062 176.691406 287.019531 175.761719 C 288.34375 175.761719 289.316406 175.761719 290.707031 175.761719 C 282.90625 173.414062 275.691406 170.785156 268.992188 166.878906 C 274.945312 168.566406 280.886719 170.09375 287.167969 169.644531 C 280.363281 167.199219 274.078125 163.75 267.851562 160.191406 C 263.46875 157.695312 258.90625 155.578125 253.210938 154.84375 C 264.003906 153.839844 272.421875 158.109375 280.457031 163.800781 C 280.371094 158.675781 277.5625 153.273438 273.246094 149.875 C 267.582031 145.433594 261.246094 142.539062 254.078125 141.472656 C 246.074219 140.285156 239.171875 143.9375 235.921875 151.191406 C 235.570312 151.96875 235.238281 152.75 234.898438 153.539062 C 234.757812 150.835938 235.878906 148.476562 237.003906 145.765625 C 234.183594 146.90625 231.691406 147.828125 229.265625 148.914062 C 224.929688 150.859375 222.460938 154.253906 221.9375 158.976562 C 221.820312 160.023438 221.328125 160.523438 220.546875 161.066406 C 217.097656 163.480469 215.066406 166.804688 214.253906 170.945312 C 213.367188 175.453125 214.5625 179.554688 216.210938 183.664062 C 218.28125 188.832031 218.519531 193.886719 214.480469 198.390625 C 213.921875 199.011719 213.570312 199.832031 212.949219 200.347656 C 210.042969 202.726562 209.757812 205.867188 210.300781 209.210938 C 210.503906 210.5 210.078125 211.195312 209.113281 211.964844 C 204.671875 215.488281 202.574219 220.070312 203.132812 225.792969 C 203.226562 226.785156 203.804688 227.738281 203.453125 228.902344 C 198.761719 225.582031 194.894531 221.339844 190.117188 218.253906 C 189.765625 218.03125 189.550781 217.484375 189.410156 217.039062 C 186.933594 209.09375 181.25 204.277344 173.917969 201.027344 C 173.351562 200.785156 172.828125 200.613281 172.464844 200.003906 C 169.792969 195.5625 165.863281 192.636719 161.085938 190.746094 C 158.0625 189.550781 157.988281 189.515625 158.234375 186.261719 C 158.949219 176.511719 156.214844 167.582031 151.457031 159.285156 C 143.710938 145.777344 141.222656 130.941406 139.832031 115.769531 C 139.738281 114.699219 139.960938 113.78125 140.507812 112.820312 C 142.773438 108.785156 144.898438 104.660156 147.175781 100.636719 C 147.792969 99.535156 147.761719 98.605469 147.257812 97.539062 C 146.09375 95.105469 145.003906 92.636719 143.839844 90.203125 C 141.167969 84.628906 141.234375 84.671875 144.75 79.640625 C 145.828125 78.101562 146.660156 78.082031 148.222656 78.902344 C 160.15625 85.214844 172.15625 91.398438 184.082031 97.71875 C 185.585938 98.519531 186.292969 98.265625 187.222656 96.941406 C 192.597656 89.292969 197.917969 81.617188 203.539062 74.152344 C 205.855469 71.074219 207.234375 68.191406 206.527344 64.175781 C 205.695312 59.402344 205.546875 54.503906 205.085938 49.601562 C 204.746094 49.707031 204.5625 49.707031 204.5 49.792969 C 198.546875 57.960938 192.617188 66.140625 186.644531 74.300781 C 186.078125 75.070312 186.132812 75.816406 186.183594 76.652344 C 186.410156 80.3125 186.644531 83.976562 186.847656 87.640625 C 187.019531 90.703125 186.953125 90.800781 184.28125 92.851562 C 183.34375 87.007812 183.011719 81.136719 182.382812 75.304688 C 182.296875 74.546875 182.648438 74.003906 183.066406 73.414062 C 189.390625 64.667969 195.640625 55.859375 202.09375 47.207031 C 203.3125 45.574219 202.863281 45.277344 201.433594 44.550781 C 187.777344 37.652344 174.152344 30.710938 160.519531 23.769531 C 148.371094 17.574219 136.242188 11.371094 124.09375 5.164062 C 123.113281 4.664062 122.308594 4.171875 121.304688 5.496094 C 114.820312 14.039062 108.238281 22.519531 101.625 30.976562 C 100.707031 32.152344 100.589844 33.261719 100.910156 34.617188 C 102.203125 40.214844 103.578125 45.800781 104.625 51.4375 C 105.140625 54.171875 106.476562 55.71875 108.902344 56.9375 C 116.625 60.835938 124.246094 64.945312 131.9375 68.917969 C 133.082031 69.507812 133.347656 69.945312 132.503906 71.023438 C 131.660156 72.113281 130.867188 73.277344 130.261719 74.503906 C 129.128906 76.800781 127.515625 77.25 125.054688 76.746094 C 120.003906 75.710938 118.902344 76.277344 116.304688 80.804688 C 112.960938 86.625 109.671875 92.464844 106.464844 98.359375 C 102.167969 106.261719 102.125 103.742188 105.824219 112.605469 C 106.199219 113.492188 106.207031 114.101562 105.664062 114.882812 C 100.171875 122.871094 94.894531 131.007812 89.1875 138.824219 C 83.503906 146.597656 78.671875 154.90625 71.558594 161.785156 C 64.386719 168.714844 58.777344 177.226562 53.722656 185.941406 C 53.554688 186.226562 53.351562 186.589844 53.070312 186.6875 C 50.710938 187.585938 50.1875 189.699219 49.664062 191.792969 C 49.386719 192.890625 49 193.800781 47.941406 194.484375 C 43.402344 197.417969 41.382812 202.546875 42.652344 207.617188 C 43.871094 212.519531 48.457031 216.535156 53.402344 217.046875 C 58.382812 217.558594 63.523438 214.601562 65.785156 209.945312 C 66.984375 207.488281 66.910156 205.109375 65.316406 202.875 C 62.753906 199.300781 59.375 196.726562 55.304688 195.058594 C 54.664062 194.792969 53.542969 194.941406 53.863281 193.789062 C 54.160156 192.6875 55.113281 192.957031 55.945312 193.160156 C 61.40625 194.492188 65.433594 197.484375 67.390625 202.941406 C 67.550781 203.378906 67.199219 204.671875 68.492188 203.964844 C 70.574219 202.835938 71.363281 200.761719 70.574219 198.5 C 70.050781 196.972656 69.132812 195.667969 68.03125 194.503906 C 65.285156 191.589844 62.113281 189.3125 58.253906 188.066406 C 57.464844 187.808594 56.746094 187.507812 57.101562 186.503906 C 57.429688 185.566406 58.199219 185.929688 58.863281 186.066406 C 60.285156 186.367188 61.707031 186.730469 62.988281 187.425781 C 64.089844 188.023438 64.75 188.011719 65.464844 186.773438 C 66.886719 184.316406 68.523438 181.988281 70.0625 179.605469 C 74.667969 172.441406 79.28125 165.296875 83.832031 158.101562 C 84.582031 156.925781 85.308594 157.019531 86.140625 157.777344 C 86.921875 158.484375 88.332031 158.902344 87.230469 160.523438 C 85.523438 163.042969 84.015625 165.683594 82.378906 168.253906 C 77.925781 175.261719 73.339844 182.179688 68.566406 188.984375 C 68.105469 189.636719 67.964844 190.105469 68.523438 190.796875 C 70.039062 192.699219 71.460938 194.675781 72.304688 197.183594 C 72.667969 196.769531 72.851562 196.566406 73.011719 196.351562 C 79.261719 187.988281 84.027344 178.796875 88.355469 169.34375 C 88.554688 168.90625 88.917969 168.363281 88.800781 167.988281 C 87.957031 165.4375 89.742188 163.792969 90.90625 162.03125 C 96.441406 153.65625 102.074219 145.347656 107.683594 137.03125 C 109.628906 134.148438 111.636719 131.296875 113.589844 128.464844 C 114.199219 128.753906 114.039062 129.074219 114.050781 129.320312 C 114.253906 141.238281 114.007812 153.144531 113.421875 165.039062 C 112.800781 177.664062 115.214844 189.6875 119.894531 201.339844 C 122.226562 207.128906 125.164062 212.617188 128.082031 218.117188 C 129 219.855469 129.585938 221.511719 129.03125 223.617188 C 128.230469 226.660156 128.527344 229.789062 129.308594 232.863281 C 130.25 236.578125 131.648438 240.105469 133.464844 243.46875 C 134.128906 244.707031 134.542969 245.957031 134.394531 247.429688 C 133.691406 254.328125 133.574219 261.25 133.710938 268.179688 C 134.085938 287.691406 138.445312 306.195312 148.167969 323.230469 C 160.113281 344.148438 177.808594 358.191406 200.4375 366.203125 C 203.292969 367.214844 206.132812 368.253906 209.402344 368.816406 C 209.351562 368.699219 209.296875 368.59375 209.242188 368.488281 C 207.480469 368.167969 206.527344 367.933594 206.527344 367.933594 C 168.234375 313.019531 171.121094 207.222656 171.121094 207.222656 Z M 171.121094 207.222656 " fill-opacity="1" fill-rule="nonzero"/></g><path fill="#fdfdfd" d="M 210.535156 219.460938 C 212.695312 214.558594 217 211.835938 221.222656 209.058594 C 224.746094 206.742188 228.046875 204.0625 229.875 200.28125 C 231.9375 196.019531 235.410156 195.796875 239.203125 196.042969 C 242.910156 196.289062 245.015625 198.210938 245.851562 201.796875 C 245.890625 201.957031 245.914062 202.171875 245.851562 202.3125 C 242.824219 208.375 245.199219 217.144531 251.03125 221.574219 C 253.363281 223.347656 256 224.585938 258.4375 226.167969 C 263.5 229.433594 264.667969 233.589844 261.929688 238.984375 C 259.527344 243.714844 255.988281 247.664062 252.902344 251.957031 C 252.785156 251.058594 253.0625 250.324219 253.394531 249.542969 C 254.71875 246.425781 255.839844 243.222656 256.632812 239.921875 C 257.753906 235.222656 256.40625 231.207031 253.03125 227.789062 C 250.414062 225.140625 247.464844 222.804688 245.328125 219.675781 C 242.644531 215.753906 241.449219 211.472656 241.757812 206.742188 C 241.789062 206.304688 241.980469 205.824219 241.53125 205.246094 C 239.117188 209.902344 238.421875 214.6875 239.300781 219.726562 C 240.199219 224.886719 243.628906 228.539062 247.175781 232.480469 C 238.585938 229.734375 231.960938 227.503906 232.964844 215.03125 C 223.335938 227.234375 227.898438 240.789062 239.246094 246.960938 C 229.460938 246.320312 218.976562 238.074219 225.058594 221.382812 C 221.457031 224.296875 219.019531 229.113281 218.015625 235.289062 C 216.285156 231.710938 216.753906 227.085938 219.265625 222.835938 C 220.933594 220.015625 223.21875 217.679688 225.324219 215.199219 C 227.804688 212.285156 229.382812 209.507812 230.292969 205.972656 C 227.761719 210.277344 223.625 212.371094 219.253906 214.207031 C 216.015625 215.5625 213.195312 217.539062 211.050781 220.367188 C 210.269531 220.378906 210.324219 219.964844 210.535156 219.460938 Z M 210.535156 219.460938 " fill-opacity="1" fill-rule="nonzero"/><path fill="#fcfefd" d="M 146.769531 201.957031 C 143.777344 191.429688 139.566406 181.199219 136.328125 170.636719 C 133.316406 160.855469 130.582031 151.019531 129.652344 140.777344 C 129.449219 138.578125 129.320312 136.367188 129.222656 134.144531 C 130.589844 139.722656 131.433594 145.433594 133.785156 150.742188 C 132.503906 140.683594 132.632812 130.675781 134.332031 120.660156 C 135.453125 122.582031 135.550781 124.769531 135.964844 126.832031 C 138.21875 138.140625 142.054688 148.925781 146.609375 159.488281 C 148.96875 164.976562 151.148438 170.519531 150.625 176.679688 C 150.113281 182.683594 148.96875 188.589844 148.019531 194.527344 C 147.601562 197.046875 147.175781 199.554688 146.769531 201.957031 Z M 146.769531 201.957031 " fill-opacity="1" fill-rule="nonzero"/><path fill="#fcfcfc" d="M 171.644531 59.839844 C 170.402344 61.699219 169.164062 63.558594 167.933594 65.425781 C 167.582031 65.972656 167.207031 65.863281 166.71875 65.597656 C 146.9375 55.226562 127.160156 44.859375 107.351562 34.53125 C 106.144531 33.902344 106.570312 33.441406 107.148438 32.683594 C 112.136719 26.222656 117.105469 19.742188 122.074219 13.257812 C 123.988281 10.773438 123.976562 10.773438 127.035156 12.4375 C 123.25 17.488281 119.488281 22.507812 115.71875 27.539062 C 115.011719 28.476562 114.4375 29.546875 113.601562 30.347656 C 111.945312 31.96875 112.789062 32.578125 114.414062 33.410156 C 132.3125 42.617188 150.175781 51.875 168.03125 61.164062 C 168.855469 61.59375 169.335938 61.730469 169.878906 60.867188 C 170.199219 60.355469 170.679688 59.949219 171.097656 59.5 C 171.28125 59.605469 171.460938 59.722656 171.644531 59.839844 Z M 171.644531 59.839844 " fill-opacity="1" fill-rule="nonzero"/><path fill="#fdfdfd" d="M 162.699219 228.570312 C 158.574219 220.613281 153.992188 212.96875 150.132812 204.949219 C 149.761719 204.179688 149.769531 203.558594 150.132812 202.800781 C 151.222656 200.558594 152.269531 198.304688 153.285156 196.03125 C 153.640625 195.242188 153.925781 194.8125 154.964844 195.1875 C 158.105469 196.296875 161.234375 197.375 164.066406 199.191406 C 166.472656 200.730469 167.839844 202.910156 168.585938 205.652344 C 170.605469 213.128906 168.277344 221.414062 162.699219 228.570312 Z M 162.699219 228.570312 " fill-opacity="1" fill-rule="nonzero"/><path fill="#fdfdfd" d="M 224.265625 167.945312 C 225.410156 162.328125 229.191406 160 234.566406 159.136719 C 241.179688 158.066406 247.699219 157.160156 254.289062 159.167969 C 256.308594 159.785156 257.539062 160.746094 258.085938 162.9375 C 259.121094 167.082031 260.488281 171.136719 261.835938 175.644531 C 258.886719 172.472656 256.214844 169.675781 253.648438 166.792969 C 252.890625 165.9375 252.164062 165.789062 251.117188 166 C 247.464844 166.75 243.789062 167.433594 240.113281 168.117188 C 238.753906 168.371094 238.1875 169.773438 239.109375 170.808594 C 239.40625 171.136719 240.058594 171.222656 239.972656 171.832031 C 239.609375 174.4375 239.554688 177.152344 238.542969 179.554688 C 237.984375 180.867188 236.296875 179.894531 235.144531 179.949219 C 234.105469 180.003906 234.609375 179.019531 234.609375 178.507812 C 234.621094 175.804688 234.707031 173.113281 234.75 170.414062 C 234.757812 169.429688 235.046875 168.351562 233.285156 169.28125 C 231.992188 169.953125 230.453125 169.171875 229.011719 169.035156 C 227.601562 168.894531 226.199219 168.308594 224.757812 168.875 C 223.988281 168.875 224.050781 168.457031 224.265625 167.945312 Z M 224.265625 167.945312 " fill-opacity="1" fill-rule="nonzero"/><path fill="#fcfdfd" d="M 253.917969 190.199219 C 252.367188 186.707031 249.675781 184.988281 246.277344 184.15625 C 245.582031 183.984375 244.738281 183.855469 244.683594 182.820312 C 244.652344 182.179688 244.128906 182.203125 243.648438 182.0625 C 242.792969 181.816406 241.9375 181.507812 241.160156 181.089844 C 240.113281 180.535156 240.441406 179.554688 240.636719 178.699219 C 240.839844 177.738281 241.566406 177.910156 242.28125 178.039062 C 244.3125 178.390625 244.320312 178.378906 244.417969 175.964844 C 246.332031 176.628906 248.199219 177.203125 250.027344 177.917969 C 251.105469 178.335938 251.867188 178.25 252.816406 177.472656 C 255.691406 175.101562 256.191406 175.152344 259.292969 177.34375 C 263.5 180.324219 263.5 180.324219 259.78125 183.910156 C 257.722656 185.875 255.636719 187.789062 253.917969 190.199219 Z M 253.917969 190.199219 " fill-opacity="1" fill-rule="nonzero"/><path fill="#fafbfb" d="M 171.140625 38.183594 C 178.984375 40.339844 186.367188 43.535156 193.535156 47.261719 C 194.660156 47.839844 193.941406 48.382812 193.609375 48.863281 C 191.6875 51.652344 189.734375 54.40625 187.777344 57.171875 C 184.753906 61.464844 181.675781 65.714844 178.714844 70.0625 C 177.296875 72.15625 176.289062 70.082031 175.320312 69.710938 C 174.078125 69.238281 175.359375 68.46875 175.683594 68.011719 C 179.839844 62.0625 183.996094 56.125 188.28125 50.261719 C 189.242188 48.949219 188.867188 48.523438 187.648438 47.890625 C 182.628906 45.285156 177.777344 42.371094 172.945312 39.402344 C 172.335938 39.015625 171.75 38.589844 171.140625 38.183594 Z M 171.140625 38.183594 " fill-opacity="1" fill-rule="nonzero"/><path fill="#fbfbfb" d="M 132.621094 108.238281 C 134.8125 104.746094 137.046875 101.179688 139.277344 97.613281 C 139.535156 97.207031 139.84375 96.792969 139.941406 96.34375 C 140.132812 95.488281 139.875 94.625 139.320312 94.023438 C 138.734375 93.394531 138.21875 94.21875 137.71875 94.441406 C 135.175781 95.53125 132.632812 96.632812 130.164062 97.847656 C 128.871094 98.488281 128.1875 98.074219 127.460938 97.003906 C 125.460938 94.089844 125.441406 94.132812 128.464844 92.507812 C 131.148438 91.078125 133.828125 89.625 136.46875 88.109375 C 137.355469 87.597656 137.792969 87.617188 138.414062 88.566406 C 140.15625 91.25 141.4375 94.152344 142.941406 96.953125 C 143.285156 97.582031 143.019531 97.996094 142.761719 98.476562 C 141.9375 99.996094 141.007812 101.46875 140.292969 103.039062 C 138.777344 106.328125 136.734375 108.785156 132.621094 108.238281 Z M 132.621094 108.238281 " fill-opacity="1" fill-rule="nonzero"/><path fill="#fcfdfd" d="M 269.421875 259.964844 C 272.015625 257.703125 273.425781 254.925781 274.773438 252.117188 C 275.125 251.378906 275.320312 250.953125 276.207031 251.539062 C 282.765625 255.898438 289.777344 259.5625 296.207031 264.140625 C 296.476562 264.335938 296.679688 264.621094 297.167969 265.144531 C 287.820312 263.085938 278.835938 261.121094 269.421875 259.964844 Z M 269.421875 259.964844 " fill-opacity="1" fill-rule="nonzero"/><path fill="#fafbfb" d="M 272.839844 156.015625 C 263.332031 148.90625 249.183594 147.867188 239.84375 153.765625 C 241.746094 149.203125 247.921875 147.101562 253.691406 146.984375 C 261.492188 146.824219 268.417969 148.914062 272.839844 156.015625 Z M 272.839844 156.015625 " fill-opacity="1" fill-rule="nonzero"/><path fill="#fbfcfb" d="M 232.078125 177.363281 C 232.40625 179.714844 231.679688 181.808594 231.84375 183.933594 C 231.917969 184.925781 231.082031 184.957031 230.472656 185.191406 C 227.449219 186.324219 224.8125 187.988281 222.800781 190.808594 C 222.566406 189.507812 222.597656 188.269531 222.117188 187.296875 C 220.792969 184.625 221.925781 182.542969 223.335938 180.417969 C 223.808594 179.722656 224.308594 179.382812 225.035156 179.863281 C 227.054688 181.1875 228.59375 180.449219 230.035156 178.859375 C 230.527344 178.316406 231.234375 177.960938 232.078125 177.363281 Z M 232.078125 177.363281 " fill-opacity="1" fill-rule="nonzero"/><path fill="#f9fafa" d="M 286.335938 244.417969 C 284.808594 239.976562 285.554688 235.511719 286.386719 231.113281 C 287.722656 224.097656 287.285156 217.515625 282.648438 211.6875 C 282.59375 211.621094 282.671875 211.453125 282.691406 211.324219 C 289.605469 216.460938 291.464844 222.589844 288.929688 231.570312 C 287.832031 235.480469 286.453125 239.34375 286.792969 243.511719 C 286.871094 243.9375 287.136719 244.449219 286.335938 244.417969 Z M 286.335938 244.417969 " fill-opacity="1" fill-rule="nonzero"/><path fill="#fafafb" d="M 261.449219 201.242188 C 255.582031 200.890625 250.65625 198.839844 247.238281 193.726562 C 244.246094 189.261719 243.925781 189.175781 239.085938 188.289062 C 243.585938 186.546875 247.410156 187.585938 250.101562 191.492188 C 253.039062 195.742188 256.566406 199.214844 261.449219 201.242188 Z M 261.449219 201.242188 " fill-opacity="1" fill-rule="nonzero"/><path fill="#f8f9f9" d="M 234.214844 188.769531 C 230.816406 189.890625 229.394531 192.828125 227.664062 195.445312 C 224.585938 200.089844 221.222656 202.511719 215.984375 203.675781 C 218.089844 202.214844 219.929688 200.472656 221.488281 198.445312 C 223.082031 196.363281 224.671875 194.28125 226.230469 192.164062 C 228.1875 189.496094 230.804688 188.320312 234.214844 188.769531 Z M 234.214844 188.769531 " fill-opacity="1" fill-rule="nonzero"/><path fill="#f9fafa" d="M 271.71875 175.089844 C 281.921875 175.890625 288.761719 184.894531 285.4375 195.445312 C 285.277344 185.351562 279.113281 179.960938 271.71875 175.089844 Z M 271.71875 175.089844 " fill-opacity="1" fill-rule="nonzero"/><path fill="#f8f9f9" d="M 259.589844 217.507812 C 262.859375 217.816406 266.097656 218.199219 269.058594 219.632812 C 272.945312 221.511719 274.742188 224.972656 274.035156 229.148438 C 273.832031 230.363281 273.480469 231.550781 273.074219 232.800781 C 272.296875 224.382812 266.226562 220.730469 259.589844 217.507812 Z M 259.589844 217.507812 " fill-opacity="1" fill-rule="nonzero"/><path fill="#f9fafa" d="M 122.800781 109.9375 C 121.542969 108.859375 120.492188 108.335938 120.011719 107.492188 C 118.464844 104.769531 116.015625 104.4375 113.292969 104.542969 C 111.976562 104.597656 110.664062 104.554688 109.308594 104.554688 C 110.277344 101.191406 111.015625 100.636719 114.242188 100.710938 C 119.851562 100.839844 119.851562 100.839844 121.648438 106.242188 C 121.988281 107.265625 122.300781 108.3125 122.800781 109.9375 Z M 122.800781 109.9375 " fill-opacity="1" fill-rule="nonzero"/><path fill="#f7f8f9" d="M 139.824219 245.242188 C 142.527344 250.175781 145.21875 255.117188 147.933594 260.050781 C 148.296875 260.714844 148.179688 261.375 148.050781 262.058594 C 147.625 264.226562 147.21875 266.386719 146.757812 268.796875 C 146 266.621094 144.566406 264.527344 144.8125 262.65625 C 145.046875 260.84375 144.769531 259.453125 144.128906 257.980469 C 142.484375 254.1875 141.019531 250.335938 139.640625 246.4375 C 139.535156 246.125 139.460938 245.804688 139.375 245.484375 C 139.511719 245.421875 139.671875 245.324219 139.824219 245.242188 Z M 139.824219 245.242188 " fill-opacity="1" fill-rule="nonzero"/><path fill="#fafbfb" d="M 133.851562 81.648438 C 132.363281 84.105469 130.644531 85.523438 127.589844 84.5 C 125.65625 83.847656 123.550781 83.644531 121.519531 83.292969 C 120.707031 83.152344 120.613281 83.015625 120.910156 82.140625 C 121.582031 80.164062 122.503906 79.234375 124.789062 79.832031 C 127.75 80.625 130.804688 81.0625 133.851562 81.648438 Z M 133.851562 81.648438 " fill-opacity="1" fill-rule="nonzero"/><path fill="#f9f9fa" d="M 47.664062 201.039062 C 48.5 199.972656 49.554688 199.875 50.582031 199.992188 C 55.359375 200.515625 59.085938 202.78125 61.40625 207.019531 C 62.347656 208.738281 62.539062 210.597656 60.691406 212.007812 C 58.925781 205.398438 53.714844 202.832031 47.664062 201.039062 Z M 47.664062 201.039062 " fill-opacity="1" fill-rule="nonzero"/><path fill="#f6f7f8" d="M 280.511719 201.414062 C 280.210938 194.085938 276.214844 188.917969 270.84375 184.390625 C 279.476562 185.511719 283 191.683594 280.511719 201.414062 Z M 280.511719 201.414062 " fill-opacity="1" fill-rule="nonzero"/><path fill="#f8fafa" d="M 123.273438 101.191406 C 122.4375 97.433594 119.691406 97.6875 117.0625 97.65625 C 115.695312 97.644531 114.328125 97.496094 112.941406 97.398438 C 114.273438 93.300781 116.894531 92.359375 122.191406 93.972656 C 123.5625 94.398438 124.296875 98.425781 123.273438 101.191406 Z M 123.273438 101.191406 " fill-opacity="1" fill-rule="nonzero"/><path fill="#f8f9f9" d="M 278.515625 216.675781 C 274.636719 215.167969 271.226562 213.929688 267.882812 212.53125 C 265.382812 211.484375 263.457031 209.710938 262.285156 207.234375 C 262.027344 206.679688 261.226562 205.84375 262.003906 205.429688 C 262.816406 205 263.972656 204.53125 264.835938 205.640625 C 265.90625 207 267.113281 208.214844 268.40625 209.378906 C 271.152344 211.847656 274.527344 213.394531 277.359375 215.710938 C 277.605469 215.914062 277.851562 216.117188 278.515625 216.675781 Z M 278.515625 216.675781 " fill-opacity="1" fill-rule="nonzero"/><path fill="#f7f8f8" d="M 127.246094 198.765625 C 130.089844 200.558594 132.695312 202.203125 135.3125 203.828125 C 136.09375 204.308594 136.222656 204.992188 136.210938 205.824219 C 136.191406 209.59375 136.199219 213.363281 136.199219 217.25 C 132.183594 211.664062 127.972656 203.070312 127.246094 198.765625 Z M 127.246094 198.765625 " fill-opacity="1" fill-rule="nonzero"/><path fill="#f8fafa" d="M 116.402344 90.414062 C 118.847656 86.078125 118.847656 86.070312 123.199219 87.105469 C 124.714844 87.46875 126.210938 87.886719 127.71875 88.28125 C 124.628906 92.550781 120.460938 90.289062 116.402344 90.414062 Z M 116.402344 90.414062 " fill-opacity="1" fill-rule="nonzero"/><path fill="#f4f5f5" d="M 269.109375 205.589844 C 267.347656 201.789062 266.160156 197.921875 266.152344 193.84375 C 270.019531 197.496094 271.011719 201.230469 269.109375 205.589844 Z M 269.109375 205.589844 " fill-opacity="1" fill-rule="nonzero"/><path fill="#ed2f40" d="M 178.886719 335.96875 C 178.683594 334.089844 178.492188 332.210938 177.765625 330.4375 C 176.003906 322.203125 174.484375 313.929688 173.597656 305.542969 C 171.769531 288.425781 170.949219 271.253906 170.597656 254.050781 C 170.820312 252.652344 170.714844 251.273438 170.425781 249.886719 C 170.285156 251.828125 169.558594 253.71875 169.871094 255.707031 C 169.921875 255.589844 169.976562 255.460938 170.03125 255.34375 C 170.019531 255.480469 169.976562 255.609375 169.871094 255.707031 C 169.6875 259.847656 169.484375 263.992188 169.3125 268.148438 C 168.832031 280.492188 169.515625 292.75 171.523438 304.945312 C 173 313.949219 175.148438 322.800781 177.371094 331.632812 C 177.625 333.171875 178.023438 334.644531 178.886719 335.96875 Z M 178.886719 335.96875 " fill-opacity="1" fill-rule="nonzero"/><path fill="#b4b5b4" d="M 210.535156 219.460938 C 210.644531 219.792969 210.523438 220.242188 211.027344 220.367188 C 210.40625 221.488281 209.789062 222.613281 208.964844 224.085938 C 209.210938 222.164062 209.648438 220.742188 210.535156 219.460938 Z M 210.535156 219.460938 " fill-opacity="1" fill-rule="nonzero"/><path fill="#a5a7a6" d="M 224.265625 167.945312 C 224.394531 168.265625 224.222656 168.757812 224.757812 168.851562 C 224.210938 169.707031 223.667969 170.550781 223.121094 171.40625 C 223.070312 170.058594 223.582031 168.972656 224.265625 167.945312 Z M 224.265625 167.945312 " fill-opacity="1" fill-rule="nonzero"/><path fill="#b2b4b3" d="M 286.335938 244.417969 C 286.484375 244.117188 286.632812 243.820312 286.792969 243.519531 C 287.082031 244.535156 287.382812 245.550781 287.671875 246.566406 C 286.828125 246.03125 286.453125 245.292969 286.335938 244.417969 Z M 286.335938 244.417969 " fill-opacity="1" fill-rule="nonzero"/><g clip-path="url(#077996802b)"><path fill="#ed2f40" d="M 237.71875 368.96875 C 224.542969 351.964844 213.710938 333.597656 205.535156 313.691406 C 203.121094 307.820312 200.910156 301.882812 199.070312 295.773438 C 200.460938 310.039062 204.992188 323.679688 207.566406 337.730469 C 206.101562 336.238281 205.398438 334.367188 204.660156 332.5625 C 196.582031 312.976562 191.453125 292.664062 189.261719 271.585938 C 188.011719 259.519531 187.636719 247.40625 187.242188 235.296875 C 187.105469 231.15625 186.988281 227 185.746094 222.964844 C 184.175781 217.816406 180.566406 214.28125 176.355469 210.628906 C 177.390625 216.332031 178.160156 221.648438 178.652344 227 C 179.476562 235.894531 179.742188 244.824219 180.234375 253.742188 C 181.75 281.058594 185.480469 307.96875 194.359375 333.992188 C 198.140625 345.078125 202.726562 355.800781 208.101562 366.203125 C 208.453125 366.894531 208.792969 367.601562 209.222656 368.476562 C 214.074219 369.363281 224.992188 370.921875 238.660156 370.015625 C 238.328125 369.726562 238.027344 369.363281 237.71875 368.96875 Z M 237.71875 368.96875 " fill-opacity="1" fill-rule="nonzero"/></g><path fill="#fcfdfd" d="M 290.671875 269.40625 C 277.5 267.441406 263.574219 269.300781 256.78125 273.796875 C 259.183594 276.925781 262.242188 279.265625 265.605469 281.230469 C 273.449219 285.808594 282.09375 287.871094 290.949219 289.34375 C 298.699219 290.636719 306.210938 292.792969 312.917969 297.097656 C 313.71875 297.609375 314.488281 298.199219 315.558594 298.945312 C 314.511719 293.585938 312.78125 288.726562 310.492188 283.398438 C 314.46875 286.28125 317.578125 289.164062 320.367188 292.398438 C 323.667969 296.234375 326.703125 300.257812 329.203125 304.667969 C 330.292969 302.148438 331.339844 299.53125 332.332031 296.820312 C 322.332031 281.429688 308.644531 272.085938 290.671875 269.40625 Z M 290.671875 269.40625 " fill-opacity="1" fill-rule="nonzero"/><path fill="#ed2f40" d="M 239.835938 311.804688 C 236.222656 306.933594 232.78125 301.933594 229.257812 296.992188 C 228.988281 296.359375 229.289062 296.285156 229.8125 296.414062 C 246.820312 315.582031 265.394531 333.203125 283.984375 350.800781 C 285.289062 352.03125 286.515625 353.34375 287.714844 354.667969 C 287.757812 354.722656 287.800781 354.765625 287.839844 354.816406 C 291.484375 352.554688 295.074219 349.980469 298.589844 347.054688 C 298.441406 346.980469 298.28125 346.894531 298.097656 346.789062 C 287.851562 340.433594 277.980469 333.535156 268.597656 325.972656 C 252.3125 312.847656 237.453125 298.28125 225.269531 281.195312 C 217.097656 269.714844 210.035156 257.605469 206.207031 243.882812 C 205.835938 242.550781 205.289062 241.203125 205.257812 239.859375 C 205.183594 237.296875 203.910156 235.734375 201.847656 234.410156 C 200.523438 233.558594 199.957031 233.515625 199.753906 235.171875 C 199.722656 235.425781 199.617188 235.683594 199.457031 236.214844 C 197.457031 233.835938 196.476562 231.132812 195.117188 228.65625 C 194.765625 228.429688 194.59375 228.132812 194.496094 227.855469 C 194.550781 228.324219 194.53125 228.933594 194.691406 229.511719 C 199.125 247.257812 205.257812 264.398438 213.195312 280.886719 C 227.695312 311.011719 246.769531 337.945312 269.835938 362.101562 C 270.167969 362.453125 270.5 362.804688 270.851562 363.191406 C 274.921875 361.652344 279.003906 359.804688 283.066406 357.59375 C 282.894531 357.464844 282.734375 357.328125 282.585938 357.1875 C 267.464844 342.898438 252.304688 328.613281 239.835938 311.804688 Z M 239.835938 311.804688 " fill-opacity="1" fill-rule="nonzero"/><path fill="#ed2f40" d="M 287.722656 354.667969 C 286.515625 353.34375 285.289062 352.042969 283.996094 350.800781 C 265.402344 333.203125 246.832031 315.582031 229.824219 296.414062 C 229.300781 296.277344 229 296.359375 229.265625 296.992188 C 232.78125 301.933594 236.222656 306.933594 239.84375 311.800781 C 252.3125 328.613281 267.476562 342.898438 282.617188 357.1875 C 282.765625 357.328125 282.925781 357.464844 283.097656 357.59375 C 284.691406 356.730469 286.28125 355.789062 287.875 354.808594 C 287.820312 354.773438 287.765625 354.722656 287.722656 354.667969 Z M 287.722656 354.667969 " fill-opacity="1" fill-rule="nonzero"/><path fill="#ed2f40" d="M 215.515625 250.71875 C 215.171875 250.472656 214.851562 250.214844 214.671875 249.929688 C 214.832031 250.269531 215.046875 250.675781 215.097656 251.15625 C 219.019531 260.917969 224.597656 269.695312 231.074219 277.949219 C 243.957031 294.375 260.082031 307.148438 277.210938 318.777344 C 286.835938 325.3125 297.007812 330.929688 307.308594 336.300781 C 307.832031 336.566406 308.347656 336.855469 308.878906 337.132812 C 312.566406 333.011719 316.101562 328.398438 319.40625 323.238281 C 294.808594 314.558594 271.609375 303.183594 251.011719 287.007812 C 237.601562 276.476562 225.644531 264.460938 215.515625 250.71875 Z M 215.515625 250.71875 " fill-opacity="1" fill-rule="nonzero"/><path fill="#ed2f40" d="M 214.671875 249.929688 C 214.628906 249.84375 214.585938 249.757812 214.554688 249.683594 C 214.585938 249.769531 214.617188 249.84375 214.671875 249.929688 Z M 214.671875 249.929688 " fill-opacity="1" fill-rule="nonzero"/><path fill="#ed2f40" d="M 204.550781 284.976562 C 204.550781 284.976562 227.363281 338.488281 260.679688 366.480469 C 260.679688 366.480469 255.96875 367.71875 252.675781 368.273438 C 252.675781 368.273438 216.902344 326.027344 204.550781 284.976562 Z M 204.550781 284.976562 " fill-opacity="1" fill-rule="nonzero"/></svg>