<svg version="1.0" preserveAspectRatio="xMidYMid meet" viewBox="26.505624296962882 155.903616 971.4887514060742 266.112" zoomAndPan="magnify" xmlns:xlink="http://www.w3.org/1999/xlink" xmlns="http://www.w3.org/2000/svg" style="max-height: 500px" width="971.4887514060742" height="266.112"><defs><g/><clipPath id="5f904a7491"><path clip-rule="nonzero" d="M 34 161.449219 L 235 161.449219 L 235 413 L 34 413 Z M 34 161.449219"/></clipPath><clipPath id="5863b31249"><path clip-rule="nonzero" d="M 969.253906 250.1875 L 990.675781 250.1875 L 990.675781 271.609375 L 969.253906 271.609375 Z M 969.253906 250.1875"/></clipPath></defs><path fill-rule="nonzero" fill-opacity="1" d="M 143.828125 189.332031 L 145.835938 190.90625 L 146.433594 195.445312 L 134.566406 222.078125 L 132.78125 223.660156 L 128.234375 217.539062 L 130.417969 206.292969 Z M 143.828125 189.332031" fill="#fcfefd"/><path fill-rule="nonzero" fill-opacity="1" d="M 49.742188 300.597656 C 49.742188 300.597656 50.746094 300.847656 51.429688 298.167969 L 53.636719 295.476562 C 53.636719 295.476562 63.273438 281.917969 65.515625 275.378906 L 64.179688 273.574219 L 67.941406 266.273438 L 63.789062 264.5 L 46.390625 282.257812 L 40.066406 292.90625 L 45.203125 296.65625 Z M 49.742188 300.597656" fill="#fcfefd"/><path fill-rule="nonzero" fill-opacity="1" d="M 198.03125 269.230469 C 198.03125 269.230469 197.632812 273.730469 203.019531 275.570312 C 203.019531 275.570312 198.722656 274.847656 195.355469 273.472656 C 195.355469 273.472656 199.445312 277.234375 205.457031 279.789062 C 205.457031 279.789062 196.644531 278.5 193.285156 277.316406 L 186.855469 269.722656 L 174.992188 265.183594 L 164.710938 266.269531 L 168.34375 259.136719 C 168.34375 259.136719 171.484375 257.910156 172.722656 257.339844 C 172.722656 257.339844 191.011719 255.417969 198.03125 269.230469 Z M 198.03125 269.230469" fill="#fcfefd"/><path fill-rule="nonzero" fill-opacity="1" d="M 219.136719 354.023438 C 220.714844 357.699219 221.910156 361.050781 222.632812 364.746094 C 221.894531 364.230469 221.363281 363.828125 220.8125 363.472656 C 216.183594 360.503906 211 359.015625 205.65625 358.125 C 199.539062 357.109375 193.585938 355.6875 188.175781 352.527344 C 185.855469 351.171875 183.746094 349.566406 182.089844 347.402344 C 186.777344 344.308594 196.378906 343.027344 205.464844 344.375 C 217.863281 346.222656 227.3125 352.660156 234.203125 363.273438 C 234.203125 363.273438 231.253906 355.339844 229.175781 353.265625 L 214.347656 343.792969 L 172.824219 335.800781 L 149.101562 318.941406 L 143.167969 318.050781 L 136.046875 311.542969 C 136.046875 311.542969 130.113281 299.410156 122.996094 301.480469 C 122.996094 301.480469 121.003906 374.453125 147.398438 412.332031 C 147.398438 412.332031 148.058594 412.496094 149.269531 412.714844 C 148.972656 412.113281 148.746094 411.625 148.496094 411.148438 C 144.789062 403.972656 141.625 396.570312 139.015625 388.933594 C 132.894531 370.984375 130.328125 352.417969 129.273438 333.585938 C 128.933594 327.433594 128.75 321.277344 128.183594 315.144531 C 127.84375 311.453125 127.3125 307.785156 126.597656 303.851562 C 129.503906 306.363281 131.992188 308.808594 133.078125 312.359375 C 133.925781 315.136719 134.011719 318 134.109375 320.867188 C 134.382812 329.21875 134.640625 337.5625 135.5 345.890625 C 137.011719 360.429688 140.550781 374.4375 146.121094 387.945312 C 146.636719 389.191406 147.117188 390.480469 148.125 391.511719 C 146.351562 381.828125 143.226562 372.414062 142.265625 362.574219 C 143.535156 366.78125 145.0625 370.882812 146.726562 374.933594 C 152.371094 388.660156 159.835938 401.328125 168.925781 413.054688 C 169.140625 413.328125 169.34375 413.578125 169.566406 413.796875 C 176.296875 413.347656 183.980469 412.046875 191.792969 409.085938 C 191.550781 408.820312 191.324219 408.578125 191.09375 408.332031 C 175.195312 391.660156 162.042969 373.078125 152.046875 352.308594 C 146.570312 340.933594 142.339844 329.113281 139.28125 316.875 C 139.171875 316.476562 139.1875 316.054688 139.148438 315.730469 C 139.214844 315.921875 139.335938 316.136719 139.578125 316.285156 C 140.511719 317.992188 141.183594 319.847656 142.570312 321.5 C 142.679688 321.128906 142.753906 320.953125 142.777344 320.777344 C 142.917969 319.636719 143.300781 319.664062 144.21875 320.253906 C 145.652344 321.167969 146.519531 322.242188 146.570312 324.011719 C 146.601562 324.945312 146.976562 325.867188 147.226562 326.785156 C 149.867188 336.25 154.730469 344.601562 160.375 352.519531 C 168.769531 364.304688 179.023438 374.34375 190.261719 383.402344 C 196.734375 388.617188 203.542969 393.375 210.609375 397.757812 C 210.726562 397.832031 210.839844 397.890625 210.949219 397.941406 C 213.382812 395.910156 215.753906 393.632812 218.03125 391.09375 C 217.671875 390.894531 217.308594 390.703125 216.949219 390.515625 C 209.835938 386.8125 202.820312 382.945312 196.1875 378.429688 C 184.371094 370.410156 173.25 361.59375 164.363281 350.273438 C 159.898438 344.589844 156.050781 338.535156 153.34375 331.796875 C 153.308594 331.472656 153.160156 331.183594 153.050781 330.949219 C 153.011719 330.890625 152.992188 330.835938 152.96875 330.777344 C 152.992188 330.832031 153.019531 330.890625 153.050781 330.949219 C 153.175781 331.140625 153.394531 331.324219 153.632812 331.492188 C 160.625 340.972656 168.875 349.265625 178.109375 356.519531 C 192.316406 367.671875 208.320312 375.515625 225.285156 381.511719 C 227.730469 377.695312 230 373.4375 232.042969 368.710938 C 230.316406 365.667969 228.226562 362.890625 225.949219 360.246094 C 224.023438 358 221.878906 356.003906 219.136719 354.023438 Z M 219.136719 354.023438" fill="#20235a"/><g clip-path="url(#5f904a7491)"><path fill-rule="nonzero" fill-opacity="1" d="M 123.003906 301.488281 C 130.121094 299.417969 136.054688 311.546875 136.054688 311.546875 L 143.175781 318.058594 L 149.105469 318.949219 L 172.832031 335.816406 L 214.355469 343.808594 L 229.183594 353.28125 C 231.261719 355.347656 234.210938 363.289062 234.210938 363.289062 C 235.257812 358.699219 233.539062 355.28125 230.503906 352.335938 C 227.390625 349.316406 223.691406 347.101562 219.976562 344.949219 C 216.941406 343.1875 214.472656 340.796875 211.761719 338.402344 C 213.101562 337.910156 214.199219 337.332031 215.179688 336.566406 C 219.359375 333.335938 219.851562 327.414062 216.242188 324.03125 C 214.554688 322.457031 212.253906 322.050781 210.269531 323.074219 C 211.382812 323.179688 212.15625 323.730469 212.902344 324.335938 C 214.621094 325.734375 214.972656 327.945312 213.757812 329.542969 C 212.527344 331.160156 210.367188 331.433594 208.511719 330.203125 C 206.113281 328.613281 205.253906 325.101562 206.625 322.265625 C 207.308594 320.851562 208.148438 319.503906 208.804688 318.074219 C 211.171875 312.933594 210.375 308.460938 206.410156 304.449219 C 205.605469 303.636719 204.152344 302.953125 204.066406 302.097656 C 203.960938 301.132812 205.105469 300.066406 205.628906 299.003906 C 208.648438 292.871094 208.523438 286.972656 204.273438 281.394531 C 203.894531 280.902344 203.476562 280.429688 202.945312 279.789062 C 203.859375 279.789062 204.53125 279.789062 205.488281 279.789062 C 200.109375 278.167969 195.132812 276.359375 190.511719 273.664062 C 194.617188 274.824219 198.714844 275.878906 203.046875 275.570312 C 198.355469 273.882812 194.019531 271.503906 189.722656 269.050781 C 186.703125 267.328125 183.554688 265.871094 179.625 265.363281 C 187.070312 264.667969 192.878906 267.617188 198.421875 271.542969 C 198.363281 268.007812 196.421875 264.277344 193.445312 261.9375 C 189.539062 258.875 185.167969 256.878906 180.222656 256.140625 C 174.703125 255.324219 169.941406 257.84375 167.703125 262.84375 C 167.457031 263.378906 167.230469 263.917969 166.996094 264.464844 C 166.898438 262.601562 167.671875 260.972656 168.445312 259.101562 C 166.5 259.890625 164.78125 260.523438 163.109375 261.273438 C 160.117188 262.613281 158.414062 264.957031 158.054688 268.210938 C 157.972656 268.933594 157.632812 269.28125 157.097656 269.65625 C 154.714844 271.320312 153.316406 273.609375 152.753906 276.46875 C 152.144531 279.578125 152.96875 282.40625 154.105469 285.242188 C 155.535156 288.804688 155.695312 292.289062 152.910156 295.398438 C 152.527344 295.824219 152.285156 296.390625 151.855469 296.746094 C 149.851562 298.386719 149.652344 300.550781 150.027344 302.859375 C 150.167969 303.75 149.875 304.226562 149.210938 304.757812 C 146.144531 307.1875 144.699219 310.347656 145.082031 314.296875 C 145.148438 314.980469 145.546875 315.636719 145.304688 316.4375 C 142.070312 314.148438 139.402344 311.226562 136.105469 309.097656 C 135.863281 308.941406 135.714844 308.566406 135.621094 308.257812 C 133.910156 302.777344 129.988281 299.457031 124.933594 297.214844 C 124.542969 297.046875 124.179688 296.929688 123.929688 296.507812 C 122.089844 293.445312 119.375 291.425781 116.082031 290.125 C 113.996094 289.296875 113.945312 289.277344 114.113281 287.03125 C 114.609375 280.304688 112.722656 274.148438 109.441406 268.425781 C 104.097656 259.109375 102.378906 248.878906 101.421875 238.414062 C 101.355469 237.675781 101.511719 237.042969 101.886719 236.378906 C 103.449219 233.597656 104.914062 230.753906 106.484375 227.976562 C 106.914062 227.21875 106.890625 226.578125 106.542969 225.839844 C 105.742188 224.160156 104.988281 222.460938 104.1875 220.78125 C 102.34375 216.9375 102.386719 216.964844 104.8125 213.496094 C 105.558594 212.4375 106.132812 212.421875 107.207031 212.988281 C 115.441406 217.339844 123.71875 221.605469 131.941406 225.964844 C 132.980469 226.519531 133.46875 226.339844 134.109375 225.429688 C 137.816406 220.15625 141.484375 214.859375 145.363281 209.710938 C 146.960938 207.589844 147.914062 205.601562 147.425781 202.832031 C 146.851562 199.539062 146.75 196.160156 146.433594 192.777344 C 146.195312 192.851562 146.070312 192.851562 146.027344 192.910156 C 141.921875 198.546875 137.832031 204.1875 133.710938 209.8125 C 133.320312 210.34375 133.355469 210.859375 133.394531 211.433594 C 133.546875 213.960938 133.710938 216.488281 133.851562 219.011719 C 133.96875 221.128906 133.925781 221.191406 132.082031 222.605469 C 131.433594 218.578125 131.203125 214.527344 130.769531 210.507812 C 130.710938 209.984375 130.953125 209.609375 131.242188 209.203125 C 135.605469 203.171875 139.917969 197.09375 144.367188 191.128906 C 145.207031 190.003906 144.898438 189.796875 143.910156 189.296875 C 134.492188 184.535156 125.09375 179.75 115.691406 174.960938 C 107.3125 170.691406 98.945312 166.410156 90.566406 162.132812 C 89.886719 161.785156 89.335938 161.449219 88.644531 162.359375 C 84.167969 168.253906 79.628906 174.101562 75.066406 179.933594 C 74.433594 180.742188 74.351562 181.511719 74.574219 182.445312 C 75.464844 186.304688 76.414062 190.15625 77.136719 194.046875 C 77.492188 195.929688 78.414062 197 80.085938 197.839844 C 85.414062 200.527344 90.667969 203.363281 95.976562 206.101562 C 96.765625 206.507812 96.949219 206.808594 96.367188 207.554688 C 95.785156 208.304688 95.238281 209.105469 94.820312 209.953125 C 94.039062 211.539062 92.925781 211.847656 91.230469 211.5 C 87.742188 210.785156 86.984375 211.175781 85.195312 214.300781 C 82.886719 218.3125 80.617188 222.34375 78.40625 226.40625 C 75.441406 231.859375 75.414062 230.121094 77.964844 236.234375 C 78.222656 236.84375 78.230469 237.265625 77.851562 237.800781 C 74.066406 243.3125 70.425781 248.921875 66.488281 254.3125 C 62.566406 259.675781 59.234375 265.40625 54.328125 270.148438 C 49.382812 274.929688 45.511719 280.800781 42.027344 286.808594 C 41.910156 287.007812 41.769531 287.257812 41.578125 287.324219 C 39.949219 287.945312 39.585938 289.402344 39.226562 290.84375 C 39.035156 291.605469 38.769531 292.230469 38.039062 292.703125 C 34.90625 294.726562 33.515625 298.261719 34.390625 301.761719 C 35.230469 305.140625 38.394531 307.910156 41.804688 308.265625 C 45.242188 308.617188 48.785156 306.578125 50.347656 303.367188 C 51.171875 301.671875 51.121094 300.03125 50.023438 298.492188 C 48.253906 296.023438 45.925781 294.246094 43.117188 293.097656 C 42.675781 292.914062 41.902344 293.019531 42.121094 292.222656 C 42.328125 291.464844 42.984375 291.648438 43.558594 291.789062 C 47.324219 292.707031 50.105469 294.769531 51.453125 298.535156 C 51.5625 298.835938 51.320312 299.726562 52.210938 299.242188 C 53.648438 298.460938 54.195312 297.03125 53.648438 295.46875 C 53.289062 294.417969 52.65625 293.519531 51.894531 292.714844 C 50 290.707031 47.8125 289.136719 45.152344 288.273438 C 44.605469 288.097656 44.113281 287.890625 44.355469 287.199219 C 44.585938 286.550781 45.113281 286.800781 45.570312 286.898438 C 46.550781 287.105469 47.53125 287.355469 48.417969 287.832031 C 49.175781 288.246094 49.632812 288.238281 50.125 287.382812 C 51.105469 285.691406 52.234375 284.085938 53.296875 282.441406 C 56.472656 277.5 59.65625 272.574219 62.796875 267.609375 C 63.3125 266.796875 63.8125 266.863281 64.386719 267.386719 C 64.925781 267.875 65.898438 268.160156 65.140625 269.28125 C 63.960938 271.019531 62.921875 272.835938 61.792969 274.613281 C 58.71875 279.445312 55.558594 284.214844 52.265625 288.910156 C 51.945312 289.359375 51.851562 289.683594 52.234375 290.160156 C 53.28125 291.472656 54.261719 292.832031 54.84375 294.566406 C 55.09375 294.277344 55.21875 294.136719 55.328125 293.992188 C 59.640625 288.222656 62.929688 281.882812 65.914062 275.363281 C 66.054688 275.0625 66.304688 274.6875 66.222656 274.429688 C 65.640625 272.667969 66.871094 271.535156 67.675781 270.320312 C 71.492188 264.542969 75.375 258.8125 79.246094 253.078125 C 80.585938 251.089844 81.972656 249.121094 83.320312 247.171875 C 83.742188 247.367188 83.632812 247.589844 83.636719 247.757812 C 83.777344 255.980469 83.609375 264.191406 83.203125 272.394531 C 82.777344 281.101562 84.441406 289.394531 87.667969 297.429688 C 89.277344 301.421875 91.304688 305.207031 93.316406 309 C 93.949219 310.199219 94.355469 311.34375 93.972656 312.792969 C 93.417969 314.890625 93.625 317.050781 94.164062 319.171875 C 94.8125 321.734375 95.777344 324.164062 97.03125 326.484375 C 97.488281 327.339844 97.773438 328.203125 97.671875 329.21875 C 97.183594 333.976562 97.105469 338.75 97.199219 343.527344 C 97.457031 356.984375 100.464844 369.746094 107.171875 381.496094 C 115.410156 395.921875 127.617188 405.609375 143.226562 411.132812 C 145.195312 411.832031 147.152344 412.546875 149.410156 412.9375 C 149.371094 412.855469 149.335938 412.78125 149.296875 412.707031 C 148.082031 412.488281 147.425781 412.324219 147.425781 412.324219 C 121.011719 374.453125 123.003906 301.488281 123.003906 301.488281 Z M 123.003906 301.488281" fill="#20235a"/></g><path fill-rule="nonzero" fill-opacity="1" d="M 150.191406 309.929688 C 151.679688 306.546875 154.648438 304.667969 157.558594 302.753906 C 159.992188 301.15625 162.269531 299.308594 163.53125 296.699219 C 164.953125 293.761719 167.347656 293.605469 169.964844 293.777344 C 172.523438 293.945312 173.972656 295.273438 174.546875 297.746094 C 174.578125 297.855469 174.59375 298.003906 174.546875 298.101562 C 172.460938 302.285156 174.097656 308.328125 178.125 311.386719 C 179.730469 312.609375 181.550781 313.464844 183.230469 314.554688 C 186.722656 316.808594 187.527344 319.671875 185.640625 323.390625 C 183.980469 326.65625 181.542969 329.378906 179.414062 332.339844 C 179.332031 331.722656 179.523438 331.214844 179.75 330.675781 C 180.664062 328.523438 181.441406 326.316406 181.984375 324.039062 C 182.757812 320.800781 181.832031 318.03125 179.5 315.671875 C 177.695312 313.847656 175.660156 312.234375 174.1875 310.074219 C 172.335938 307.371094 171.511719 304.417969 171.726562 301.15625 C 171.746094 300.855469 171.878906 300.523438 171.570312 300.125 C 169.90625 303.335938 169.425781 306.636719 170.03125 310.113281 C 170.648438 313.667969 173.015625 316.1875 175.460938 318.90625 C 169.535156 317.011719 164.96875 315.472656 165.660156 306.871094 C 159.019531 315.289062 162.167969 324.636719 169.992188 328.894531 C 163.242188 328.453125 156.011719 322.765625 160.207031 311.253906 C 157.722656 313.265625 156.042969 316.585938 155.347656 320.84375 C 154.15625 318.375 154.480469 315.1875 156.210938 312.253906 C 157.363281 310.3125 158.9375 308.699219 160.390625 306.988281 C 162.101562 304.980469 163.191406 303.0625 163.816406 300.625 C 162.070312 303.59375 159.21875 305.039062 156.203125 306.304688 C 153.972656 307.238281 152.027344 308.601562 150.542969 310.554688 C 150.007812 310.5625 150.042969 310.273438 150.191406 309.929688 Z M 150.191406 309.929688" fill="#fdfdfd"/><path fill-rule="nonzero" fill-opacity="1" d="M 106.207031 297.855469 C 104.140625 290.59375 101.238281 283.539062 99.003906 276.253906 C 96.925781 269.507812 95.039062 262.726562 94.398438 255.660156 C 94.257812 254.144531 94.171875 252.621094 94.105469 251.089844 C 95.046875 254.933594 95.628906 258.875 97.25 262.535156 C 96.367188 255.597656 96.453125 248.695312 97.625 241.785156 C 98.402344 243.113281 98.46875 244.621094 98.753906 246.042969 C 100.308594 253.84375 102.957031 261.28125 106.09375 268.566406 C 107.722656 272.351562 109.226562 276.175781 108.867188 280.421875 C 108.511719 284.5625 107.722656 288.636719 107.066406 292.730469 C 106.78125 294.46875 106.484375 296.199219 106.207031 297.855469 Z M 106.207031 297.855469" fill="#fcfefd"/><path fill-rule="nonzero" fill-opacity="1" d="M 123.363281 199.839844 C 122.507812 201.125 121.652344 202.40625 120.804688 203.695312 C 120.5625 204.070312 120.304688 203.996094 119.964844 203.8125 C 106.324219 196.660156 92.679688 189.507812 79.015625 182.386719 C 78.183594 181.953125 78.480469 181.636719 78.878906 181.113281 C 82.320312 176.65625 85.746094 172.1875 89.171875 167.714844 C 90.492188 166 90.484375 166 92.59375 167.148438 C 89.984375 170.632812 87.390625 174.09375 84.789062 177.5625 C 84.300781 178.210938 83.902344 178.945312 83.328125 179.5 C 82.1875 180.617188 82.769531 181.039062 83.890625 181.613281 C 96.234375 187.960938 108.558594 194.347656 120.871094 200.753906 C 121.441406 201.050781 121.769531 201.144531 122.148438 200.546875 C 122.367188 200.195312 122.699219 199.914062 122.988281 199.605469 C 123.113281 199.679688 123.238281 199.761719 123.363281 199.839844 Z M 123.363281 199.839844" fill="#fcfcfc"/><path fill-rule="nonzero" fill-opacity="1" d="M 117.195312 316.210938 C 114.351562 310.722656 111.1875 305.449219 108.527344 299.917969 C 108.269531 299.390625 108.277344 298.960938 108.527344 298.4375 C 109.277344 296.890625 110 295.339844 110.703125 293.769531 C 110.945312 293.222656 111.144531 292.929688 111.859375 293.1875 C 114.023438 293.953125 116.183594 294.695312 118.136719 295.949219 C 119.796875 297.011719 120.738281 298.511719 121.253906 300.40625 C 122.648438 305.5625 121.042969 311.277344 117.195312 316.210938 Z M 117.195312 316.210938" fill="#fdfdfd"/><path fill-rule="nonzero" fill-opacity="1" d="M 159.660156 274.398438 C 160.449219 270.523438 163.058594 268.917969 166.765625 268.324219 C 171.328125 267.585938 175.824219 266.960938 180.371094 268.34375 C 181.765625 268.773438 182.613281 269.433594 182.988281 270.945312 C 183.703125 273.800781 184.644531 276.601562 185.574219 279.710938 C 183.539062 277.523438 181.699219 275.59375 179.929688 273.601562 C 179.40625 273.015625 178.90625 272.910156 178.183594 273.058594 C 175.660156 273.574219 173.125 274.046875 170.589844 274.515625 C 169.65625 274.695312 169.265625 275.660156 169.898438 276.371094 C 170.105469 276.601562 170.554688 276.660156 170.496094 277.078125 C 170.246094 278.875 170.207031 280.746094 169.507812 282.40625 C 169.125 283.3125 167.960938 282.640625 167.164062 282.675781 C 166.449219 282.714844 166.796875 282.035156 166.796875 281.683594 C 166.800781 279.820312 166.863281 277.964844 166.890625 276.101562 C 166.898438 275.421875 167.097656 274.679688 165.882812 275.320312 C 164.988281 275.785156 163.929688 275.246094 162.933594 275.148438 C 161.960938 275.054688 160.996094 274.648438 160 275.039062 C 159.46875 275.039062 159.511719 274.753906 159.660156 274.398438 Z M 159.660156 274.398438" fill="#fdfdfd"/><path fill-rule="nonzero" fill-opacity="1" d="M 180.113281 289.746094 C 179.042969 287.339844 177.1875 286.152344 174.84375 285.578125 C 174.363281 285.460938 173.78125 285.371094 173.746094 284.660156 C 173.722656 284.214844 173.363281 284.230469 173.03125 284.136719 C 172.441406 283.964844 171.851562 283.753906 171.3125 283.464844 C 170.589844 283.082031 170.820312 282.40625 170.953125 281.816406 C 171.09375 281.152344 171.59375 281.269531 172.085938 281.359375 C 173.488281 281.601562 173.496094 281.59375 173.5625 279.929688 C 174.878906 280.386719 176.171875 280.785156 177.429688 281.277344 C 178.175781 281.566406 178.699219 281.507812 179.355469 280.96875 C 181.335938 279.332031 181.683594 279.371094 183.820312 280.878906 C 186.722656 282.933594 186.722656 282.933594 184.160156 285.410156 C 182.738281 286.765625 181.300781 288.082031 180.113281 289.746094 Z M 180.113281 289.746094" fill="#fcfdfd"/><path fill-rule="nonzero" fill-opacity="1" d="M 123.015625 184.90625 C 128.425781 186.394531 133.519531 188.59375 138.464844 191.164062 C 139.238281 191.5625 138.746094 191.9375 138.515625 192.269531 C 137.191406 194.191406 135.839844 196.09375 134.492188 198 C 132.40625 200.960938 130.285156 203.890625 128.242188 206.890625 C 127.261719 208.332031 126.570312 206.90625 125.898438 206.648438 C 125.042969 206.324219 125.929688 205.792969 126.148438 205.476562 C 129.015625 201.375 131.882812 197.277344 134.839844 193.234375 C 135.5 192.328125 135.242188 192.035156 134.402344 191.601562 C 130.941406 189.804688 127.59375 187.792969 124.261719 185.746094 C 123.84375 185.480469 123.4375 185.183594 123.015625 184.90625 Z M 123.015625 184.90625" fill="#fafbfb"/><path fill-rule="nonzero" fill-opacity="1" d="M 96.449219 233.21875 C 97.957031 230.8125 99.5 228.351562 101.039062 225.890625 C 101.214844 225.613281 101.429688 225.324219 101.496094 225.015625 C 101.628906 224.425781 101.453125 223.828125 101.070312 223.417969 C 100.664062 222.984375 100.308594 223.550781 99.964844 223.703125 C 98.210938 224.457031 96.453125 225.214844 94.753906 226.054688 C 93.859375 226.496094 93.390625 226.207031 92.886719 225.472656 C 91.507812 223.460938 91.496094 223.492188 93.582031 222.371094 C 95.429688 221.382812 97.28125 220.382812 99.101562 219.335938 C 99.710938 218.984375 100.015625 219 100.441406 219.652344 C 101.644531 221.503906 102.527344 223.507812 103.566406 225.4375 C 103.804688 225.871094 103.617188 226.15625 103.441406 226.488281 C 102.875 227.535156 102.234375 228.550781 101.738281 229.632812 C 100.691406 231.902344 99.285156 233.597656 96.449219 233.21875 Z M 96.449219 233.21875" fill="#fbfbfb"/><path fill-rule="nonzero" fill-opacity="1" d="M 190.808594 337.863281 C 192.597656 336.304688 193.570312 334.386719 194.5 332.449219 C 194.742188 331.941406 194.875 331.648438 195.488281 332.054688 C 200.011719 335.058594 204.847656 337.585938 209.285156 340.742188 C 209.46875 340.875 209.609375 341.074219 209.945312 341.4375 C 203.5 340.015625 197.300781 338.660156 190.808594 337.863281 Z M 190.808594 337.863281" fill="#fcfdfd"/><path fill-rule="nonzero" fill-opacity="1" d="M 193.164062 266.171875 C 186.605469 261.265625 176.847656 260.550781 170.40625 264.617188 C 171.71875 261.472656 175.976562 260.023438 179.957031 259.941406 C 185.339844 259.832031 190.113281 261.273438 193.164062 266.171875 Z M 193.164062 266.171875" fill="#fafbfb"/><path fill-rule="nonzero" fill-opacity="1" d="M 165.046875 280.894531 C 165.277344 282.515625 164.777344 283.957031 164.886719 285.425781 C 164.9375 286.109375 164.363281 286.132812 163.941406 286.292969 C 161.855469 287.074219 160.035156 288.222656 158.652344 290.167969 C 158.488281 289.269531 158.511719 288.414062 158.179688 287.746094 C 157.265625 285.902344 158.046875 284.46875 159.019531 283 C 159.34375 282.523438 159.691406 282.285156 160.191406 282.617188 C 161.585938 283.53125 162.644531 283.023438 163.640625 281.925781 C 163.980469 281.550781 164.464844 281.308594 165.046875 280.894531 Z M 165.046875 280.894531" fill="#fbfcfb"/><path fill-rule="nonzero" fill-opacity="1" d="M 202.472656 327.140625 C 201.421875 324.078125 201.9375 321 202.511719 317.964844 C 203.433594 313.125 203.128906 308.585938 199.929688 304.566406 C 199.894531 304.523438 199.945312 304.40625 199.960938 304.316406 C 204.730469 307.859375 206.011719 312.085938 204.265625 318.28125 C 203.503906 320.976562 202.554688 323.640625 202.789062 326.515625 C 202.84375 326.808594 203.027344 327.164062 202.472656 327.140625 Z M 202.472656 327.140625" fill="#f9fafa"/><path fill-rule="nonzero" fill-opacity="1" d="M 185.308594 297.363281 C 181.261719 297.121094 177.863281 295.707031 175.507812 292.179688 C 173.441406 289.101562 173.222656 289.039062 169.882812 288.429688 C 172.984375 287.230469 175.625 287.945312 177.480469 290.640625 C 179.507812 293.570312 181.941406 295.964844 185.308594 297.363281 Z M 185.308594 297.363281" fill="#fafafb"/><path fill-rule="nonzero" fill-opacity="1" d="M 166.523438 288.761719 C 164.179688 289.535156 163.199219 291.558594 162.003906 293.363281 C 159.882812 296.566406 157.558594 298.238281 153.949219 299.042969 C 155.402344 298.035156 156.667969 296.832031 157.746094 295.433594 C 158.84375 293.996094 159.941406 292.5625 161.015625 291.101562 C 162.367188 289.261719 164.171875 288.453125 166.523438 288.761719 Z M 166.523438 288.761719" fill="#f8f9f9"/><path fill-rule="nonzero" fill-opacity="1" d="M 192.390625 279.328125 C 199.429688 279.878906 204.148438 286.085938 201.855469 293.363281 C 201.746094 286.402344 197.492188 282.683594 192.390625 279.328125 Z M 192.390625 279.328125" fill="#f9fafa"/><path fill-rule="nonzero" fill-opacity="1" d="M 184.027344 308.582031 C 186.28125 308.792969 188.515625 309.058594 190.554688 310.046875 C 193.238281 311.34375 194.476562 313.730469 193.992188 316.609375 C 193.851562 317.449219 193.609375 318.265625 193.328125 319.128906 C 192.789062 313.324219 188.601562 310.804688 184.027344 308.582031 Z M 184.027344 308.582031" fill="#f8f9f9"/><path fill-rule="nonzero" fill-opacity="1" d="M 89.675781 234.390625 C 88.804688 233.648438 88.082031 233.285156 87.75 232.703125 C 86.683594 230.828125 84.996094 230.597656 83.113281 230.671875 C 82.207031 230.710938 81.300781 230.679688 80.367188 230.679688 C 81.035156 228.359375 81.546875 227.976562 83.769531 228.027344 C 87.640625 228.117188 87.640625 228.117188 88.878906 231.84375 C 89.113281 232.550781 89.328125 233.273438 89.675781 234.390625 Z M 89.675781 234.390625" fill="#f9fafa"/><path fill-rule="nonzero" fill-opacity="1" d="M 101.414062 327.707031 C 103.28125 331.109375 105.136719 334.519531 107.007812 337.921875 C 107.257812 338.378906 107.179688 338.835938 107.089844 339.308594 C 106.796875 340.804688 106.515625 342.289062 106.199219 343.957031 C 105.675781 342.453125 104.6875 341.007812 104.855469 339.71875 C 105.019531 338.46875 104.828125 337.511719 104.386719 336.496094 C 103.25 333.878906 102.242188 331.222656 101.289062 328.53125 C 101.214844 328.320312 101.164062 328.097656 101.105469 327.878906 C 101.203125 327.832031 101.3125 327.765625 101.414062 327.707031 Z M 101.414062 327.707031" fill="#f7f8f9"/><path fill-rule="nonzero" fill-opacity="1" d="M 97.296875 214.882812 C 96.269531 216.574219 95.085938 217.554688 92.976562 216.847656 C 91.640625 216.398438 90.191406 216.257812 88.789062 216.015625 C 88.230469 215.917969 88.164062 215.824219 88.371094 215.21875 C 88.835938 213.859375 89.46875 213.21875 91.046875 213.628906 C 93.085938 214.175781 95.195312 214.476562 97.296875 214.882812 Z M 97.296875 214.882812" fill="#fafbfb"/><path fill-rule="nonzero" fill-opacity="1" d="M 37.847656 297.222656 C 38.421875 296.488281 39.152344 296.421875 39.859375 296.5 C 43.15625 296.863281 45.726562 298.425781 47.324219 301.347656 C 47.972656 302.535156 48.105469 303.816406 46.832031 304.789062 C 45.617188 300.226562 42.019531 298.460938 37.847656 297.222656 Z M 37.847656 297.222656" fill="#f9f9fa"/><path fill-rule="nonzero" fill-opacity="1" d="M 198.457031 297.480469 C 198.25 292.429688 195.496094 288.863281 191.789062 285.742188 C 197.742188 286.515625 200.175781 290.773438 198.457031 297.480469 Z M 198.457031 297.480469" fill="#f6f7f8"/><path fill-rule="nonzero" fill-opacity="1" d="M 90 228.359375 C 89.425781 225.765625 87.53125 225.945312 85.71875 225.921875 C 84.773438 225.914062 83.832031 225.8125 82.871094 225.746094 C 83.792969 222.917969 85.597656 222.269531 89.253906 223.378906 C 90.199219 223.675781 90.707031 226.453125 90 228.359375 Z M 90 228.359375" fill="#f8fafa"/><path fill-rule="nonzero" fill-opacity="1" d="M 197.078125 308.007812 C 194.402344 306.96875 192.050781 306.113281 189.746094 305.148438 C 188.019531 304.425781 186.695312 303.203125 185.882812 301.496094 C 185.707031 301.113281 185.152344 300.539062 185.691406 300.25 C 186.253906 299.957031 187.046875 299.632812 187.644531 300.398438 C 188.382812 301.332031 189.214844 302.171875 190.105469 302.976562 C 192 304.675781 194.328125 305.746094 196.28125 307.34375 C 196.453125 307.484375 196.621094 307.621094 197.078125 308.007812 Z M 197.078125 308.007812" fill="#f8f9f9"/><path fill-rule="nonzero" fill-opacity="1" d="M 92.742188 295.65625 C 94.699219 296.890625 96.5 298.027344 98.304688 299.144531 C 98.84375 299.476562 98.929688 299.949219 98.925781 300.523438 C 98.910156 303.121094 98.917969 305.722656 98.917969 308.402344 C 96.144531 304.550781 93.242188 298.621094 92.742188 295.65625 Z M 92.742188 295.65625" fill="#f7f8f8"/><path fill-rule="nonzero" fill-opacity="1" d="M 85.261719 220.929688 C 86.949219 217.9375 86.949219 217.929688 89.945312 218.644531 C 90.992188 218.894531 92.027344 219.183594 93.066406 219.457031 C 90.933594 222.402344 88.058594 220.839844 85.261719 220.929688 Z M 85.261719 220.929688" fill="#f8fafa"/><path fill-rule="nonzero" fill-opacity="1" d="M 190.59375 300.359375 C 189.378906 297.738281 188.558594 295.074219 188.550781 292.257812 C 191.21875 294.777344 191.90625 297.355469 190.59375 300.359375 Z M 190.59375 300.359375" fill="#f4f5f5"/><path fill-rule="nonzero" fill-opacity="1" d="M 128.359375 390.28125 C 128.21875 388.984375 128.085938 387.6875 127.585938 386.464844 C 126.371094 380.789062 125.324219 375.082031 124.710938 369.296875 C 123.453125 357.492188 122.882812 345.648438 122.640625 333.785156 C 122.796875 332.820312 122.722656 331.867188 122.523438 330.910156 C 122.425781 332.253906 121.925781 333.554688 122.140625 334.925781 C 122.175781 334.84375 122.214844 334.757812 122.25 334.675781 C 122.242188 334.769531 122.214844 334.859375 122.140625 334.925781 C 122.015625 337.785156 121.875 340.640625 121.757812 343.507812 C 121.425781 352.019531 121.898438 360.476562 123.28125 368.886719 C 124.300781 375.09375 125.78125 381.199219 127.3125 387.292969 C 127.492188 388.351562 127.761719 389.367188 128.359375 390.28125 Z M 128.359375 390.28125" fill="#ed2f40"/><path fill-rule="nonzero" fill-opacity="1" d="M 150.191406 309.929688 C 150.265625 310.15625 150.183594 310.464844 150.53125 310.554688 C 150.101562 311.328125 149.675781 312.101562 149.105469 313.117188 C 149.277344 311.792969 149.578125 310.8125 150.191406 309.929688 Z M 150.191406 309.929688" fill="#b4b5b4"/><path fill-rule="nonzero" fill-opacity="1" d="M 159.660156 274.398438 C 159.75 274.621094 159.632812 274.957031 160 275.023438 C 159.625 275.613281 159.25 276.195312 158.871094 276.785156 C 158.835938 275.855469 159.1875 275.105469 159.660156 274.398438 Z M 159.660156 274.398438" fill="#a5a7a6"/><path fill-rule="nonzero" fill-opacity="1" d="M 202.472656 327.140625 C 202.578125 326.933594 202.679688 326.726562 202.789062 326.523438 C 202.988281 327.222656 203.195312 327.921875 203.394531 328.621094 C 202.8125 328.253906 202.554688 327.746094 202.472656 327.140625 Z M 202.472656 327.140625" fill="#b2b4b3"/><path fill-rule="nonzero" fill-opacity="1" d="M 168.941406 413.039062 C 159.851562 401.316406 152.378906 388.648438 146.742188 374.917969 C 145.074219 370.867188 143.550781 366.773438 142.28125 362.558594 C 143.242188 372.398438 146.367188 381.804688 148.140625 391.496094 C 147.132812 390.464844 146.644531 389.175781 146.136719 387.933594 C 140.566406 374.425781 137.027344 360.417969 135.515625 345.878906 C 134.652344 337.554688 134.394531 329.203125 134.125 320.851562 C 134.027344 317.992188 133.945312 315.128906 133.09375 312.34375 C 132.007812 308.792969 129.515625 306.355469 126.613281 303.835938 C 127.328125 307.769531 127.859375 311.4375 128.199219 315.128906 C 128.765625 321.261719 128.949219 327.421875 129.289062 333.570312 C 130.335938 352.410156 132.90625 370.96875 139.03125 388.917969 C 141.640625 396.5625 144.804688 403.957031 148.511719 411.132812 C 148.753906 411.609375 148.988281 412.097656 149.285156 412.703125 C 152.628906 413.3125 160.164062 414.386719 169.589844 413.761719 C 169.359375 413.5625 169.152344 413.3125 168.941406 413.039062 Z M 168.941406 413.039062" fill="#ed2f40"/><path fill-rule="nonzero" fill-opacity="1" d="M 205.464844 344.375 C 196.378906 343.019531 186.777344 344.300781 182.089844 347.402344 C 183.746094 349.558594 185.855469 351.171875 188.175781 352.527344 C 193.585938 355.6875 199.546875 357.109375 205.65625 358.125 C 211 359.015625 216.183594 360.503906 220.8125 363.472656 C 221.363281 363.828125 221.894531 364.230469 222.632812 364.746094 C 221.910156 361.050781 220.714844 357.699219 219.136719 354.023438 C 221.878906 356.011719 224.023438 358 225.949219 360.230469 C 228.226562 362.875 230.316406 365.652344 232.042969 368.695312 C 232.792969 366.957031 233.515625 365.152344 234.203125 363.28125 C 227.304688 352.667969 217.863281 346.222656 205.464844 344.375 Z M 205.464844 344.375" fill="#fcfdfd"/><path fill-rule="nonzero" fill-opacity="1" d="M 170.398438 373.613281 C 167.90625 370.257812 165.535156 366.808594 163.101562 363.398438 C 162.917969 362.964844 163.125 362.914062 163.484375 363 C 175.21875 376.222656 188.027344 388.375 200.851562 400.511719 C 201.75 401.359375 202.597656 402.265625 203.425781 403.179688 C 203.453125 403.214844 203.484375 403.246094 203.511719 403.28125 C 206.027344 401.71875 208.503906 399.945312 210.925781 397.925781 C 210.824219 397.875 210.714844 397.816406 210.589844 397.742188 C 203.519531 393.359375 196.710938 388.601562 190.238281 383.386719 C 179.007812 374.335938 168.753906 364.289062 160.355469 352.507812 C 154.714844 344.589844 149.84375 336.238281 147.207031 326.773438 C 146.949219 325.851562 146.570312 324.921875 146.550781 323.996094 C 146.496094 322.226562 145.621094 321.152344 144.199219 320.238281 C 143.285156 319.648438 142.894531 319.621094 142.753906 320.761719 C 142.730469 320.9375 142.65625 321.117188 142.546875 321.484375 C 141.167969 319.839844 140.492188 317.976562 139.554688 316.269531 C 139.3125 316.113281 139.195312 315.910156 139.128906 315.71875 C 139.164062 316.042969 139.148438 316.460938 139.261719 316.859375 C 142.320312 329.101562 146.550781 340.921875 152.027344 352.292969 C 162.027344 373.070312 175.183594 391.644531 191.09375 408.304688 C 191.324219 408.546875 191.550781 408.789062 191.792969 409.054688 C 194.601562 407.996094 197.417969 406.722656 200.21875 405.195312 C 200.101562 405.109375 199.988281 405.011719 199.886719 404.917969 C 189.457031 395.0625 179 385.207031 170.398438 373.613281 Z M 170.398438 373.613281" fill="#ed2f40"/><path fill-rule="nonzero" fill-opacity="1" d="M 203.433594 403.179688 C 202.597656 402.265625 201.75 401.367188 200.859375 400.511719 C 188.035156 388.375 175.226562 376.222656 163.492188 363 C 163.132812 362.90625 162.925781 362.964844 163.109375 363.398438 C 165.535156 366.808594 167.90625 370.257812 170.40625 373.613281 C 179.007812 385.207031 189.464844 395.0625 199.910156 404.917969 C 200.011719 405.011719 200.121094 405.109375 200.242188 405.195312 C 201.339844 404.601562 202.4375 403.953125 203.535156 403.273438 C 203.5 403.25 203.460938 403.214844 203.433594 403.179688 Z M 203.433594 403.179688" fill="#ed2f40"/><path fill-rule="nonzero" fill-opacity="1" d="M 153.625 331.484375 C 153.390625 331.316406 153.167969 331.140625 153.042969 330.941406 C 153.152344 331.175781 153.300781 331.457031 153.335938 331.789062 C 156.042969 338.519531 159.890625 344.574219 164.355469 350.265625 C 173.242188 361.59375 184.367188 370.402344 196.179688 378.425781 C 202.820312 382.929688 209.835938 386.804688 216.941406 390.511719 C 217.300781 390.695312 217.65625 390.894531 218.023438 391.085938 C 220.566406 388.242188 223.007812 385.058594 225.285156 381.503906 C 208.320312 375.515625 192.316406 367.671875 178.109375 356.511719 C 168.859375 349.25 160.613281 340.964844 153.625 331.484375 Z M 153.625 331.484375" fill="#ed2f40"/><path fill-rule="nonzero" fill-opacity="1" d="M 153.042969 330.941406 C 153.011719 330.882812 152.984375 330.824219 152.960938 330.773438 C 152.984375 330.832031 153.003906 330.882812 153.042969 330.941406 Z M 153.042969 330.941406" fill="#ed2f40"/><path fill-rule="nonzero" fill-opacity="1" d="M 146.0625 355.113281 C 146.0625 355.113281 161.796875 392.019531 184.777344 411.324219 C 184.777344 411.324219 181.527344 412.179688 179.257812 412.5625 C 179.257812 412.5625 154.582031 383.425781 146.0625 355.113281 Z M 146.0625 355.113281" fill="#ed2f40"/><g fill-opacity="1" fill="#1c3f60"><g transform="translate(248.165473, 334.100151)"><g><path d="M 45.65625 -70.140625 L 45.65625 -56.109375 L 21.078125 -56.109375 L 21.078125 -42.171875 L 43.78125 -42.171875 L 43.78125 -28.140625 L 21.078125 -28.140625 L 21.078125 0 L 5.09375 0 L 5.09375 -70.140625 Z M 45.65625 -70.140625"/></g></g></g><g fill-opacity="1" fill="#1c3f60"><g transform="translate(296.362948, 334.100151)"><g><path d="M 9.21875 -5.171875 C 4.375 -9.484375 1.953125 -15.007812 1.953125 -21.75 C 1.953125 -28.5 4.472656 -34.039062 9.515625 -38.375 C 14.566406 -42.71875 20.800781 -44.890625 28.21875 -44.890625 C 35.53125 -44.890625 41.691406 -42.707031 46.703125 -38.34375 C 51.722656 -33.976562 54.234375 -28.453125 54.234375 -21.765625 C 54.234375 -15.078125 51.78125 -9.5625 46.875 -5.21875 C 41.976562 -0.882812 35.757812 1.28125 28.21875 1.28125 C 20.40625 1.28125 14.070312 -0.867188 9.21875 -5.171875 Z M 20.859375 -29.15625 C 18.910156 -27.226562 17.9375 -24.765625 17.9375 -21.765625 C 17.9375 -18.765625 18.867188 -16.3125 20.734375 -14.40625 C 22.609375 -12.507812 25.078125 -11.5625 28.140625 -11.5625 C 31.085938 -11.5625 33.507812 -12.523438 35.40625 -14.453125 C 37.300781 -16.378906 38.25 -18.816406 38.25 -21.765625 C 38.25 -24.765625 37.269531 -27.226562 35.3125 -29.15625 C 33.363281 -31.082031 30.972656 -32.046875 28.140625 -32.046875 C 25.242188 -32.046875 22.816406 -31.082031 20.859375 -29.15625 Z M 20.859375 -29.15625"/></g></g></g><g fill-opacity="1" fill="#1c3f60"><g transform="translate(352.550832, 334.100151)"><g><path d="M 5.09375 0 L 5.09375 -43.609375 L 20.15625 -43.609375 L 20.15625 -37.328125 L 20.3125 -37.328125 C 20.425781 -37.546875 20.609375 -37.828125 20.859375 -38.171875 C 21.117188 -38.515625 21.671875 -39.109375 22.515625 -39.953125 C 23.367188 -40.804688 24.273438 -41.570312 25.234375 -42.25 C 26.203125 -42.925781 27.453125 -43.535156 28.984375 -44.078125 C 30.515625 -44.617188 32.078125 -44.890625 33.671875 -44.890625 C 35.304688 -44.890625 36.914062 -44.660156 38.5 -44.203125 C 40.09375 -43.753906 41.257812 -43.300781 42 -42.84375 L 43.1875 -42.171875 L 36.890625 -29.421875 C 35.023438 -31.003906 32.421875 -31.796875 29.078125 -31.796875 C 27.265625 -31.796875 25.703125 -31.398438 24.390625 -30.609375 C 23.085938 -29.816406 22.164062 -28.851562 21.625 -27.71875 C 21.09375 -26.582031 20.710938 -25.617188 20.484375 -24.828125 C 20.265625 -24.035156 20.15625 -23.410156 20.15625 -22.953125 L 20.15625 0 Z M 5.09375 0"/></g></g></g><g fill-opacity="1" fill="#1c3f60"><g transform="translate(394.882998, 334.100151)"><g><path d="M 3.140625 10.71875 L 15.46875 4.671875 C 17.738281 8.410156 21.679688 10.28125 27.296875 10.28125 C 29.898438 10.28125 32.320312 9.441406 34.5625 7.765625 C 36.800781 6.097656 37.921875 3.535156 37.921875 0.078125 L 37.921875 -3.140625 C 35.253906 -0.191406 30.492188 1.28125 23.640625 1.28125 C 17.347656 1.28125 12.160156 -0.941406 8.078125 -5.390625 C 3.992188 -9.847656 1.953125 -15.304688 1.953125 -21.765625 C 1.953125 -28.222656 3.992188 -33.691406 8.078125 -38.171875 C 12.160156 -42.648438 17.347656 -44.890625 23.640625 -44.890625 C 29.242188 -44.890625 33.914062 -43.160156 37.65625 -39.703125 L 37.921875 -39.703125 L 37.921875 -43.609375 L 52.96875 -43.609375 L 52.96875 1.1875 C 52.96875 8.269531 50.613281 13.738281 45.90625 17.59375 C 41.207031 21.445312 35.003906 23.375 27.296875 23.375 C 14.828125 23.375 6.773438 19.15625 3.140625 10.71875 Z M 20.859375 -29.15625 C 18.910156 -27.226562 17.9375 -24.765625 17.9375 -21.765625 C 17.9375 -18.765625 18.867188 -16.3125 20.734375 -14.40625 C 22.609375 -12.507812 25.078125 -11.5625 28.140625 -11.5625 C 31.085938 -11.5625 33.507812 -12.523438 35.40625 -14.453125 C 37.300781 -16.378906 38.25 -18.816406 38.25 -21.765625 C 38.25 -24.765625 37.269531 -27.226562 35.3125 -29.15625 C 33.363281 -31.082031 30.972656 -32.046875 28.140625 -32.046875 C 25.242188 -32.046875 22.816406 -31.082031 20.859375 -29.15625 Z M 20.859375 -29.15625"/></g></g></g><g fill-opacity="1" fill="#1c3f60"><g transform="translate(452.940974, 334.100151)"><g><path d="M 49.21875 -19.71875 L 17.59375 -19.71875 C 17.59375 -16.65625 18.582031 -14.390625 20.5625 -12.921875 C 22.550781 -11.453125 24.707031 -10.71875 27.03125 -10.71875 C 29.46875 -10.71875 31.394531 -11.039062 32.8125 -11.6875 C 34.226562 -12.34375 35.84375 -13.632812 37.65625 -15.5625 L 48.546875 -10.109375 C 44.015625 -2.515625 36.476562 1.28125 25.9375 1.28125 C 19.351562 1.28125 13.707031 -0.972656 9 -5.484375 C 4.300781 -9.992188 1.953125 -15.421875 1.953125 -21.765625 C 1.953125 -28.109375 4.300781 -33.546875 9 -38.078125 C 13.707031 -42.617188 19.351562 -44.890625 25.9375 -44.890625 C 32.84375 -44.890625 38.460938 -42.890625 42.796875 -38.890625 C 47.140625 -34.898438 49.3125 -29.191406 49.3125 -21.765625 C 49.3125 -20.742188 49.28125 -20.0625 49.21875 -19.71875 Z M 18.015625 -28.0625 L 34.59375 -28.0625 C 34.257812 -30.320312 33.367188 -32.0625 31.921875 -33.28125 C 30.472656 -34.5 28.617188 -35.109375 26.359375 -35.109375 C 23.859375 -35.109375 21.867188 -34.457031 20.390625 -33.15625 C 18.921875 -31.851562 18.128906 -30.15625 18.015625 -28.0625 Z M 18.015625 -28.0625"/></g></g></g><g fill-opacity="1" fill="#1c3f60"><g transform="translate(504.198608, 334.100151)"><g><path d="M 42.421875 -14.453125 C 44.859375 -14.453125 47.222656 -14.816406 49.515625 -15.546875 C 51.816406 -16.285156 53.503906 -17 54.578125 -17.6875 L 56.1875 -18.78125 L 63 -5.1875 C 62.769531 -5.019531 62.457031 -4.789062 62.0625 -4.5 C 61.664062 -4.21875 60.742188 -3.691406 59.296875 -2.921875 C 57.847656 -2.160156 56.300781 -1.492188 54.65625 -0.921875 C 53.019531 -0.359375 50.867188 0.144531 48.203125 0.59375 C 45.535156 1.050781 42.785156 1.28125 39.953125 1.28125 C 33.441406 1.28125 27.265625 -0.316406 21.421875 -3.515625 C 15.585938 -6.722656 10.882812 -11.132812 7.3125 -16.75 C 3.738281 -22.363281 1.953125 -28.425781 1.953125 -34.9375 C 1.953125 -39.875 3 -44.609375 5.09375 -49.140625 C 7.195312 -53.671875 9.988281 -57.550781 13.46875 -60.78125 C 16.957031 -64.007812 21.023438 -66.585938 25.671875 -68.515625 C 30.316406 -70.441406 35.078125 -71.40625 39.953125 -71.40625 C 44.492188 -71.40625 48.675781 -70.867188 52.5 -69.796875 C 56.320312 -68.722656 59.023438 -67.644531 60.609375 -66.5625 L 63 -64.953125 L 56.1875 -51.34375 C 55.789062 -51.6875 55.195312 -52.097656 54.40625 -52.578125 C 53.613281 -53.066406 52.023438 -53.707031 49.640625 -54.5 C 47.265625 -55.289062 44.859375 -55.6875 42.421875 -55.6875 C 38.566406 -55.6875 35.109375 -55.0625 32.046875 -53.8125 C 28.984375 -52.5625 26.5625 -50.914062 24.78125 -48.875 C 23 -46.84375 21.640625 -44.648438 20.703125 -42.296875 C 19.765625 -39.941406 19.296875 -37.546875 19.296875 -35.109375 C 19.296875 -29.785156 21.289062 -25.007812 25.28125 -20.78125 C 29.28125 -16.5625 34.992188 -14.453125 42.421875 -14.453125 Z M 42.421875 -14.453125"/></g></g></g><g fill-opacity="1" fill="#1c3f60"><g transform="translate(568.206891, 334.100151)"><g><path d="M 9.21875 -5.171875 C 4.375 -9.484375 1.953125 -15.007812 1.953125 -21.75 C 1.953125 -28.5 4.472656 -34.039062 9.515625 -38.375 C 14.566406 -42.71875 20.800781 -44.890625 28.21875 -44.890625 C 35.53125 -44.890625 41.691406 -42.707031 46.703125 -38.34375 C 51.722656 -33.976562 54.234375 -28.453125 54.234375 -21.765625 C 54.234375 -15.078125 51.78125 -9.5625 46.875 -5.21875 C 41.976562 -0.882812 35.757812 1.28125 28.21875 1.28125 C 20.40625 1.28125 14.070312 -0.867188 9.21875 -5.171875 Z M 20.859375 -29.15625 C 18.910156 -27.226562 17.9375 -24.765625 17.9375 -21.765625 C 17.9375 -18.765625 18.867188 -16.3125 20.734375 -14.40625 C 22.609375 -12.507812 25.078125 -11.5625 28.140625 -11.5625 C 31.085938 -11.5625 33.507812 -12.523438 35.40625 -14.453125 C 37.300781 -16.378906 38.25 -18.816406 38.25 -21.765625 C 38.25 -24.765625 37.269531 -27.226562 35.3125 -29.15625 C 33.363281 -31.082031 30.972656 -32.046875 28.140625 -32.046875 C 25.242188 -32.046875 22.816406 -31.082031 20.859375 -29.15625 Z M 20.859375 -29.15625"/></g></g></g><g fill-opacity="1" fill="#1c3f60"><g transform="translate(624.394763, 334.100151)"><g><path d="M 5.09375 0 L 5.09375 -43.609375 L 20.15625 -43.609375 L 20.15625 -39.015625 L 20.3125 -39.015625 C 24.226562 -42.929688 28.394531 -44.890625 32.8125 -44.890625 C 35.988281 -44.890625 38.960938 -44.238281 41.734375 -42.9375 C 44.515625 -41.632812 46.613281 -39.617188 48.03125 -36.890625 C 52.457031 -42.222656 57.273438 -44.890625 62.484375 -44.890625 C 67.128906 -44.890625 71.125 -43.582031 74.46875 -40.96875 C 77.8125 -38.363281 79.484375 -34.285156 79.484375 -28.734375 L 79.484375 0 L 64.4375 0 L 64.4375 -24.65625 C 64.4375 -26.976562 63.796875 -28.914062 62.515625 -30.46875 C 61.242188 -32.03125 59.335938 -32.8125 56.796875 -32.8125 C 54.578125 -32.8125 52.882812 -32.144531 51.71875 -30.8125 C 50.5625 -29.476562 49.925781 -27.878906 49.8125 -26.015625 L 49.8125 0 L 34.765625 0 L 34.765625 -24.65625 C 34.765625 -26.976562 34.128906 -28.914062 32.859375 -30.46875 C 31.585938 -32.03125 29.675781 -32.8125 27.125 -32.8125 C 24.800781 -32.8125 23.054688 -32.085938 21.890625 -30.640625 C 20.734375 -29.203125 20.15625 -27.488281 20.15625 -25.5 L 20.15625 0 Z M 5.09375 0"/></g></g></g><g fill-opacity="1" fill="#1c3f60"><g transform="translate(708.124074, 334.100151)"><g><path d="M 5.09375 0 L 5.09375 -43.609375 L 20.15625 -43.609375 L 20.15625 -39.015625 L 20.3125 -39.015625 C 24.226562 -42.929688 28.394531 -44.890625 32.8125 -44.890625 C 35.988281 -44.890625 38.960938 -44.238281 41.734375 -42.9375 C 44.515625 -41.632812 46.613281 -39.617188 48.03125 -36.890625 C 52.457031 -42.222656 57.273438 -44.890625 62.484375 -44.890625 C 67.128906 -44.890625 71.125 -43.582031 74.46875 -40.96875 C 77.8125 -38.363281 79.484375 -34.285156 79.484375 -28.734375 L 79.484375 0 L 64.4375 0 L 64.4375 -24.65625 C 64.4375 -26.976562 63.796875 -28.914062 62.515625 -30.46875 C 61.242188 -32.03125 59.335938 -32.8125 56.796875 -32.8125 C 54.578125 -32.8125 52.882812 -32.144531 51.71875 -30.8125 C 50.5625 -29.476562 49.925781 -27.878906 49.8125 -26.015625 L 49.8125 0 L 34.765625 0 L 34.765625 -24.65625 C 34.765625 -26.976562 34.128906 -28.914062 32.859375 -30.46875 C 31.585938 -32.03125 29.675781 -32.8125 27.125 -32.8125 C 24.800781 -32.8125 23.054688 -32.085938 21.890625 -30.640625 C 20.734375 -29.203125 20.15625 -27.488281 20.15625 -25.5 L 20.15625 0 Z M 5.09375 0"/></g></g></g><g fill-opacity="1" fill="#1c3f60"><g transform="translate(791.853386, 334.100151)"><g><path d="M 8.078125 -5.390625 C 3.992188 -9.847656 1.953125 -15.304688 1.953125 -21.765625 C 1.953125 -28.222656 3.992188 -33.691406 8.078125 -38.171875 C 12.160156 -42.648438 17.347656 -44.890625 23.640625 -44.890625 C 29.421875 -44.890625 34.179688 -43.078125 37.921875 -39.453125 L 37.921875 -43.609375 L 52.96875 -43.609375 L 52.96875 0 L 38.09375 0 L 38.09375 -4.9375 L 37.921875 -4.9375 C 34.179688 -0.789062 29.421875 1.28125 23.640625 1.28125 C 17.347656 1.28125 12.160156 -0.941406 8.078125 -5.390625 Z M 20.859375 -29.15625 C 18.910156 -27.226562 17.9375 -24.765625 17.9375 -21.765625 C 17.9375 -18.765625 18.867188 -16.3125 20.734375 -14.40625 C 22.609375 -12.507812 25.078125 -11.5625 28.140625 -11.5625 C 31.085938 -11.5625 33.507812 -12.523438 35.40625 -14.453125 C 37.300781 -16.378906 38.25 -18.816406 38.25 -21.765625 C 38.25 -24.765625 37.269531 -27.226562 35.3125 -29.15625 C 33.363281 -31.082031 30.972656 -32.046875 28.140625 -32.046875 C 25.242188 -32.046875 22.816406 -31.082031 20.859375 -29.15625 Z M 20.859375 -29.15625"/></g></g></g><g fill-opacity="1" fill="#1c3f60"><g transform="translate(849.911375, 334.100151)"><g><path d="M 5.09375 0 L 5.09375 -43.609375 L 20.15625 -43.609375 L 20.15625 -39.015625 L 20.3125 -39.015625 C 24.226562 -42.929688 28.394531 -44.890625 32.8125 -44.890625 C 34.96875 -44.890625 37.109375 -44.601562 39.234375 -44.03125 C 41.359375 -43.46875 43.394531 -42.59375 45.34375 -41.40625 C 47.300781 -40.21875 48.890625 -38.53125 50.109375 -36.34375 C 51.328125 -34.164062 51.9375 -31.628906 51.9375 -28.734375 L 51.9375 0 L 36.890625 0 L 36.890625 -24.65625 C 36.890625 -26.925781 36.164062 -28.910156 34.71875 -30.609375 C 33.28125 -32.304688 31.398438 -33.15625 29.078125 -33.15625 C 26.804688 -33.15625 24.75 -32.273438 22.90625 -30.515625 C 21.070312 -28.765625 20.15625 -26.8125 20.15625 -24.65625 L 20.15625 0 Z M 5.09375 0"/></g></g></g><g fill-opacity="1" fill="#1c3f60"><g transform="translate(906.099271, 334.100151)"><g><path d="M 8.078125 -5.390625 C 3.992188 -9.847656 1.953125 -15.304688 1.953125 -21.765625 C 1.953125 -28.222656 3.992188 -33.691406 8.078125 -38.171875 C 12.160156 -42.648438 17.347656 -44.890625 23.640625 -44.890625 C 29.421875 -44.890625 34.179688 -43.078125 37.921875 -39.453125 L 37.921875 -73.109375 L 52.96875 -73.109375 L 52.96875 0 L 38.09375 0 L 38.09375 -4.9375 L 37.921875 -4.9375 C 34.179688 -0.789062 29.421875 1.28125 23.640625 1.28125 C 17.347656 1.28125 12.160156 -0.941406 8.078125 -5.390625 Z M 20.859375 -29.15625 C 18.910156 -27.226562 17.9375 -24.765625 17.9375 -21.765625 C 17.9375 -18.765625 18.867188 -16.3125 20.734375 -14.40625 C 22.609375 -12.507812 25.078125 -11.5625 28.140625 -11.5625 C 31.085938 -11.5625 33.507812 -12.523438 35.40625 -14.453125 C 37.300781 -16.378906 38.25 -18.816406 38.25 -21.765625 C 38.25 -24.765625 37.269531 -27.226562 35.3125 -29.15625 C 33.363281 -31.082031 30.972656 -32.046875 28.140625 -32.046875 C 25.242188 -32.046875 22.816406 -31.082031 20.859375 -29.15625 Z M 20.859375 -29.15625"/></g></g></g><g clip-path="url(#5863b31249)"><path fill-rule="nonzero" fill-opacity="1" d="M 979.964844 251.007812 C 974.511719 251.007812 970.074219 255.445312 970.074219 260.898438 C 970.074219 266.355469 974.511719 270.789062 979.964844 270.789062 C 985.417969 270.789062 989.855469 266.355469 989.855469 260.898438 C 989.855469 255.445312 985.417969 251.007812 979.964844 251.007812 Z M 979.964844 271.609375 C 978.519531 271.609375 977.117188 271.328125 975.796875 270.769531 C 974.519531 270.230469 973.375 269.457031 972.390625 268.472656 C 971.40625 267.488281 970.636719 266.34375 970.097656 265.070312 C 969.539062 263.75 969.253906 262.34375 969.253906 260.898438 C 969.253906 259.453125 969.539062 258.050781 970.097656 256.730469 C 970.636719 255.457031 971.40625 254.308594 972.390625 253.328125 C 973.375 252.34375 974.519531 251.570312 975.796875 251.03125 C 977.117188 250.472656 978.519531 250.1875 979.964844 250.1875 C 981.410156 250.1875 982.8125 250.472656 984.132812 251.03125 C 985.410156 251.570312 986.554688 252.34375 987.539062 253.328125 C 988.523438 254.308594 989.292969 255.457031 989.835938 256.730469 C 990.394531 258.050781 990.675781 259.453125 990.675781 260.898438 C 990.675781 262.34375 990.394531 263.75 989.835938 265.070312 C 989.292969 266.34375 988.523438 267.488281 987.539062 268.472656 C 986.554688 269.457031 985.410156 270.230469 984.132812 270.769531 C 982.8125 271.328125 981.410156 271.609375 979.964844 271.609375" fill="#000000"/></g><path fill-rule="nonzero" fill-opacity="1" d="M 975.4375 264.234375 L 975.4375 258.453125 L 973.234375 258.453125 L 973.234375 257.566406 L 978.726562 257.566406 L 978.726562 258.453125 L 976.527344 258.453125 L 976.527344 264.234375 L 975.4375 264.234375" fill="#000000"/><path fill-rule="nonzero" fill-opacity="1" d="M 985.605469 264.234375 L 985.605469 260.855469 C 985.605469 260.566406 985.613281 260.242188 985.628906 259.898438 L 985.632812 258.589844 C 985.566406 258.792969 985.089844 260.230469 985.019531 260.429688 L 983.625 264.234375 L 982.929688 264.234375 L 981.535156 260.429688 C 981.464844 260.230469 980.976562 258.886719 980.910156 258.6875 L 980.929688 259.902344 C 980.941406 260.230469 980.949219 260.550781 980.949219 260.847656 L 980.949219 264.234375 L 979.855469 264.234375 L 979.855469 257.566406 L 981.464844 257.566406 L 982.625 260.761719 C 982.78125 261.191406 982.933594 261.65625 983.074219 262.136719 L 983.269531 262.800781 L 983.46875 262.140625 C 983.597656 261.710938 983.746094 261.25 983.917969 260.777344 L 985.078125 257.566406 L 986.699219 257.566406 L 986.699219 264.234375 L 985.605469 264.234375" fill="#000000"/></svg>