<svg version="1.0" preserveAspectRatio="xMidYMid meet" viewBox="82.20581085489314 170.49599999999998 880.4476940382452 235.00799999999998" zoomAndPan="magnify" xmlns:xlink="http://www.w3.org/1999/xlink" xmlns="http://www.w3.org/2000/svg" style="max-height: 500px" width="880.4476940382452" height="235.00799999999998"><defs><g/><clipPath id="4c83c9c222"><path clip-rule="nonzero" d="M 167 300 L 269 300 L 269 402.992188 L 167 402.992188 Z M 167 300"/></clipPath><clipPath id="95acf779dc"><path clip-rule="nonzero" d="M 86.28125 173 L 269.941406 173 L 269.941406 402 L 86.28125 402 Z M 86.28125 173"/></clipPath><clipPath id="f35b70c0ac"><path clip-rule="nonzero" d="M 171 302 L 211 302 L 211 402.992188 L 171 402.992188 Z M 171 302"/></clipPath><clipPath id="f271367bf6"><path clip-rule="nonzero" d="M 937.71875 253.597656 L 957.207031 253.597656 L 957.207031 273 L 937.71875 273 Z M 937.71875 253.597656"/></clipPath></defs><path fill-rule="nonzero" fill-opacity="1" d="M 186.707031 198.226562 L 188.53125 199.660156 L 189.074219 203.789062 L 178.277344 228.019531 L 176.652344 229.460938 L 172.515625 223.890625 L 174.5 213.660156 Z M 186.707031 198.226562" fill="#fcfefd"/><path fill-rule="nonzero" fill-opacity="1" d="M 101.101562 299.460938 C 101.101562 299.460938 102.011719 299.6875 102.636719 297.25 L 104.640625 294.804688 C 104.640625 294.804688 113.414062 282.46875 115.453125 276.515625 L 114.238281 274.875 L 117.65625 268.234375 L 113.882812 266.617188 L 98.050781 282.773438 L 92.296875 292.464844 L 96.972656 295.875 Z M 101.101562 299.460938" fill="#fcfefd"/><path fill-rule="nonzero" fill-opacity="1" d="M 236.019531 270.921875 C 236.019531 270.921875 235.65625 275.015625 240.558594 276.691406 C 240.558594 276.691406 236.648438 276.035156 233.585938 274.78125 C 233.585938 274.78125 237.308594 278.203125 242.777344 280.53125 C 242.777344 280.53125 234.757812 279.359375 231.699219 278.277344 L 225.855469 271.371094 L 215.058594 267.242188 L 205.703125 268.226562 L 209.007812 261.742188 C 209.007812 261.742188 211.867188 260.621094 212.992188 260.105469 C 212.992188 260.105469 229.636719 258.355469 236.019531 270.921875 Z M 236.019531 270.921875" fill="#fcfefd"/><g clip-path="url(#4c83c9c222)"><path fill-rule="nonzero" fill-opacity="1" d="M 255.226562 348.070312 C 256.660156 351.414062 257.746094 354.464844 258.402344 357.828125 C 257.734375 357.359375 257.25 356.992188 256.746094 356.667969 C 252.535156 353.96875 247.820312 352.613281 242.960938 351.804688 C 237.394531 350.878906 231.976562 349.585938 227.054688 346.710938 C 224.941406 345.476562 223.023438 344.015625 221.515625 342.046875 C 225.78125 339.230469 234.515625 338.066406 242.785156 339.292969 C 254.066406 340.976562 262.660156 346.832031 268.929688 356.488281 C 268.929688 356.488281 266.25 349.269531 264.359375 347.382812 L 250.867188 338.761719 L 213.085938 331.492188 L 191.5 316.152344 L 186.101562 315.34375 L 179.625 309.417969 C 179.625 309.417969 174.226562 298.382812 167.75 300.265625 C 167.75 300.265625 165.9375 366.660156 189.953125 401.125 C 189.953125 401.125 190.554688 401.273438 191.65625 401.472656 C 191.386719 400.921875 191.179688 400.480469 190.949219 400.046875 C 187.578125 393.519531 184.699219 386.785156 182.328125 379.835938 C 176.753906 363.503906 174.421875 346.609375 173.460938 329.476562 C 173.152344 323.878906 172.984375 318.277344 172.46875 312.695312 C 172.160156 309.339844 171.679688 306 171.027344 302.421875 C 173.671875 304.707031 175.9375 306.933594 176.921875 310.164062 C 177.695312 312.6875 177.773438 315.296875 177.859375 317.902344 C 178.109375 325.5 178.34375 333.09375 179.128906 340.671875 C 180.503906 353.902344 183.722656 366.648438 188.792969 378.9375 C 189.261719 380.070312 189.695312 381.242188 190.617188 382.179688 C 189 373.367188 186.15625 364.804688 185.285156 355.851562 C 186.4375 359.675781 187.824219 363.410156 189.339844 367.097656 C 194.476562 379.585938 201.269531 391.113281 209.539062 401.78125 C 209.734375 402.027344 209.921875 402.257812 210.121094 402.457031 C 216.246094 402.050781 223.238281 400.863281 230.347656 398.167969 C 230.125 397.929688 229.917969 397.707031 229.710938 397.484375 C 215.246094 382.3125 203.277344 365.40625 194.183594 346.511719 C 189.199219 336.164062 185.351562 325.40625 182.570312 314.269531 C 182.46875 313.910156 182.480469 313.527344 182.449219 313.230469 C 182.507812 313.40625 182.617188 313.601562 182.835938 313.734375 C 183.6875 315.289062 184.296875 316.976562 185.558594 318.480469 C 185.660156 318.144531 185.726562 317.984375 185.746094 317.820312 C 185.875 316.785156 186.222656 316.808594 187.0625 317.347656 C 188.363281 318.175781 189.152344 319.15625 189.199219 320.765625 C 189.226562 321.613281 189.570312 322.453125 189.796875 323.289062 C 192.199219 331.902344 196.625 339.5 201.761719 346.703125 C 209.398438 357.425781 218.726562 366.558594 228.953125 374.800781 C 234.839844 379.546875 241.035156 383.875 247.464844 387.863281 C 247.574219 387.929688 247.675781 387.984375 247.773438 388.03125 C 249.988281 386.179688 252.148438 384.109375 254.21875 381.796875 C 253.890625 381.617188 253.5625 381.441406 253.234375 381.277344 C 246.761719 377.90625 240.378906 374.386719 234.34375 370.277344 C 223.59375 362.980469 213.476562 354.960938 205.386719 344.660156 C 201.324219 339.488281 197.824219 333.980469 195.363281 327.847656 C 195.328125 327.550781 195.195312 327.289062 195.09375 327.078125 C 195.0625 327.023438 195.042969 326.976562 195.019531 326.921875 C 195.042969 326.96875 195.066406 327.023438 195.09375 327.078125 C 195.207031 327.25 195.410156 327.417969 195.625 327.574219 C 201.988281 336.195312 209.492188 343.742188 217.894531 350.34375 C 230.824219 360.488281 245.378906 367.625 260.816406 373.078125 C 263.042969 369.609375 265.109375 365.734375 266.964844 361.433594 C 265.398438 358.664062 263.492188 356.140625 261.421875 353.734375 C 259.671875 351.691406 257.71875 349.875 255.226562 348.070312 Z M 255.226562 348.070312" fill="#20235a"/></g><g clip-path="url(#95acf779dc)"><path fill-rule="nonzero" fill-opacity="1" d="M 167.753906 300.273438 C 174.234375 298.390625 179.632812 309.425781 179.632812 309.425781 L 186.109375 315.347656 L 191.507812 316.160156 L 213.09375 331.507812 L 250.871094 338.777344 L 264.363281 347.394531 C 266.253906 349.277344 268.9375 356.5 268.9375 356.5 C 269.890625 352.328125 268.328125 349.21875 265.566406 346.535156 C 262.734375 343.789062 259.367188 341.773438 255.988281 339.816406 C 253.226562 338.214844 250.980469 336.035156 248.511719 333.859375 C 249.734375 333.410156 250.730469 332.886719 251.625 332.191406 C 255.425781 329.246094 255.875 323.859375 252.589844 320.785156 C 251.054688 319.351562 248.960938 318.980469 247.15625 319.914062 C 248.171875 320.007812 248.875 320.507812 249.550781 321.058594 C 251.113281 322.332031 251.4375 324.34375 250.328125 325.796875 C 249.210938 327.269531 247.246094 327.519531 245.554688 326.398438 C 243.375 324.953125 242.589844 321.753906 243.839844 319.175781 C 244.460938 317.890625 245.226562 316.664062 245.824219 315.363281 C 247.976562 310.683594 247.25 306.617188 243.644531 302.964844 C 242.914062 302.230469 241.59375 301.605469 241.511719 300.828125 C 241.417969 299.949219 242.457031 298.980469 242.933594 298.011719 C 245.683594 292.429688 245.570312 287.0625 241.699219 281.992188 C 241.355469 281.542969 240.976562 281.113281 240.492188 280.53125 C 241.324219 280.53125 241.933594 280.53125 242.804688 280.53125 C 237.910156 279.054688 233.382812 277.40625 229.179688 274.953125 C 232.914062 276.015625 236.644531 276.972656 240.585938 276.691406 C 236.316406 275.15625 232.371094 272.992188 228.460938 270.761719 C 225.714844 269.191406 222.851562 267.863281 219.277344 267.402344 C 226.046875 266.773438 231.332031 269.453125 236.375 273.023438 C 236.320312 269.808594 234.558594 266.417969 231.847656 264.285156 C 228.292969 261.5 224.316406 259.683594 219.820312 259.011719 C 214.796875 258.269531 210.464844 260.5625 208.425781 265.109375 C 208.203125 265.601562 207.996094 266.089844 207.78125 266.585938 C 207.695312 264.890625 208.398438 263.410156 209.101562 261.707031 C 207.332031 262.425781 205.769531 263 204.25 263.683594 C 201.527344 264.902344 199.976562 267.035156 199.648438 269.996094 C 199.574219 270.652344 199.265625 270.96875 198.777344 271.308594 C 196.609375 272.824219 195.335938 274.90625 194.828125 277.507812 C 194.269531 280.335938 195.019531 282.910156 196.054688 285.488281 C 197.355469 288.734375 197.503906 291.902344 194.96875 294.730469 C 194.617188 295.117188 194.398438 295.632812 194.007812 295.957031 C 192.183594 297.449219 192.003906 299.421875 192.34375 301.519531 C 192.472656 302.328125 192.203125 302.765625 191.601562 303.246094 C 188.8125 305.457031 187.496094 308.332031 187.847656 311.925781 C 187.90625 312.546875 188.269531 313.144531 188.046875 313.875 C 185.101562 311.792969 182.675781 309.132812 179.679688 307.195312 C 179.457031 307.054688 179.324219 306.710938 179.234375 306.429688 C 177.679688 301.445312 174.113281 298.421875 169.511719 296.386719 C 169.15625 296.230469 168.828125 296.125 168.601562 295.742188 C 166.925781 292.953125 164.457031 291.117188 161.460938 289.933594 C 159.5625 289.179688 159.515625 289.160156 159.667969 287.117188 C 160.117188 281 158.402344 275.398438 155.417969 270.191406 C 150.554688 261.714844 148.992188 252.40625 148.121094 242.882812 C 148.0625 242.214844 148.203125 241.636719 148.542969 241.035156 C 149.964844 238.5 151.300781 235.914062 152.726562 233.386719 C 153.117188 232.699219 153.097656 232.113281 152.78125 231.445312 C 152.050781 229.917969 151.367188 228.367188 150.636719 226.839844 C 148.960938 223.34375 149 223.371094 151.207031 220.214844 C 151.882812 219.25 152.40625 219.234375 153.386719 219.75 C 160.875 223.710938 168.40625 227.589844 175.890625 231.558594 C 176.835938 232.0625 177.277344 231.898438 177.859375 231.070312 C 181.234375 226.269531 184.574219 221.453125 188.101562 216.769531 C 189.554688 214.839844 190.421875 213.03125 189.976562 210.511719 C 189.457031 207.515625 189.363281 204.4375 189.074219 201.363281 C 188.859375 201.429688 188.746094 201.429688 188.703125 201.484375 C 184.96875 206.609375 181.246094 211.742188 177.5 216.863281 C 177.144531 217.34375 177.175781 217.8125 177.210938 218.335938 C 177.351562 220.636719 177.5 222.933594 177.625 225.234375 C 177.734375 227.15625 177.695312 227.214844 176.015625 228.503906 C 175.425781 224.835938 175.21875 221.152344 174.824219 217.492188 C 174.769531 217.015625 174.992188 216.675781 175.253906 216.304688 C 179.222656 210.816406 183.144531 205.289062 187.195312 199.863281 C 187.960938 198.835938 187.679688 198.648438 186.78125 198.191406 C 178.210938 193.863281 169.660156 189.507812 161.105469 185.152344 C 153.480469 181.265625 145.867188 177.371094 138.242188 173.480469 C 137.628906 173.164062 137.125 172.855469 136.492188 173.6875 C 132.421875 179.046875 128.292969 184.367188 124.140625 189.675781 C 123.566406 190.414062 123.492188 191.109375 123.691406 191.960938 C 124.503906 195.472656 125.371094 198.976562 126.027344 202.515625 C 126.347656 204.230469 127.1875 205.203125 128.707031 205.964844 C 133.558594 208.414062 138.339844 210.992188 143.167969 213.484375 C 143.882812 213.855469 144.050781 214.128906 143.523438 214.804688 C 142.992188 215.488281 142.496094 216.21875 142.113281 216.988281 C 141.402344 218.429688 140.390625 218.710938 138.847656 218.398438 C 135.675781 217.746094 134.984375 218.101562 133.355469 220.945312 C 131.257812 224.597656 129.191406 228.261719 127.179688 231.960938 C 124.484375 236.917969 124.457031 235.335938 126.777344 240.898438 C 127.011719 241.457031 127.019531 241.839844 126.675781 242.328125 C 123.230469 247.339844 119.917969 252.445312 116.335938 257.351562 C 112.769531 262.230469 109.738281 267.441406 105.273438 271.757812 C 100.773438 276.109375 97.253906 281.449219 94.082031 286.917969 C 93.972656 287.097656 93.847656 287.324219 93.671875 287.386719 C 92.191406 287.949219 91.859375 289.273438 91.53125 290.589844 C 91.359375 291.277344 91.117188 291.847656 90.453125 292.277344 C 87.601562 294.121094 86.335938 297.335938 87.132812 300.519531 C 87.898438 303.597656 90.773438 306.117188 93.878906 306.4375 C 97.003906 306.757812 100.230469 304.902344 101.652344 301.980469 C 102.402344 300.441406 102.355469 298.945312 101.355469 297.542969 C 99.746094 295.300781 97.628906 293.683594 95.074219 292.640625 C 94.671875 292.472656 93.964844 292.566406 94.167969 291.84375 C 94.355469 291.152344 94.953125 291.320312 95.476562 291.445312 C 98.902344 292.285156 101.429688 294.160156 102.65625 297.585938 C 102.757812 297.859375 102.535156 298.671875 103.347656 298.226562 C 104.65625 297.519531 105.152344 296.21875 104.65625 294.796875 C 104.328125 293.839844 103.75 293.019531 103.058594 292.289062 C 101.335938 290.460938 99.34375 289.035156 96.921875 288.25 C 96.425781 288.089844 95.976562 287.902344 96.199219 287.273438 C 96.40625 286.683594 96.890625 286.910156 97.304688 286.996094 C 98.199219 287.183594 99.089844 287.414062 99.894531 287.847656 C 100.585938 288.222656 101 288.214844 101.449219 287.4375 C 102.34375 285.898438 103.367188 284.4375 104.332031 282.941406 C 107.222656 278.445312 110.121094 273.964844 112.976562 269.445312 C 113.445312 268.710938 113.902344 268.769531 114.425781 269.246094 C 114.914062 269.6875 115.800781 269.949219 115.109375 270.96875 C 114.035156 272.550781 113.089844 274.203125 112.066406 275.820312 C 109.269531 280.214844 106.390625 284.558594 103.394531 288.828125 C 103.105469 289.234375 103.019531 289.53125 103.367188 289.964844 C 104.320312 291.160156 105.210938 292.398438 105.742188 293.972656 C 105.96875 293.710938 106.082031 293.585938 106.183594 293.449219 C 110.105469 288.203125 113.097656 282.433594 115.8125 276.503906 C 115.941406 276.226562 116.167969 275.886719 116.09375 275.652344 C 115.566406 274.050781 116.683594 273.019531 117.417969 271.914062 C 120.890625 266.660156 124.421875 261.445312 127.945312 256.226562 C 129.164062 254.414062 130.425781 252.625 131.652344 250.851562 C 132.035156 251.03125 131.933594 251.234375 131.941406 251.386719 C 132.066406 258.867188 131.914062 266.335938 131.546875 273.800781 C 131.15625 281.722656 132.671875 289.269531 135.609375 296.578125 C 137.070312 300.210938 138.914062 303.65625 140.746094 307.105469 C 141.320312 308.199219 141.691406 309.238281 141.34375 310.558594 C 140.839844 312.46875 141.027344 314.429688 141.515625 316.363281 C 142.105469 318.695312 142.984375 320.90625 144.125 323.015625 C 144.539062 323.792969 144.800781 324.578125 144.707031 325.5 C 144.265625 329.832031 144.191406 334.171875 144.277344 338.523438 C 144.515625 350.765625 147.25 362.378906 153.351562 373.066406 C 160.847656 386.195312 171.953125 395.007812 186.15625 400.03125 C 187.945312 400.667969 189.730469 401.320312 191.78125 401.675781 C 191.75 401.601562 191.714844 401.53125 191.679688 401.464844 C 190.574219 401.265625 189.976562 401.117188 189.976562 401.117188 C 165.945312 366.660156 167.753906 300.273438 167.753906 300.273438 Z M 167.753906 300.273438" fill="#20235a"/></g><path fill-rule="nonzero" fill-opacity="1" d="M 192.492188 307.953125 C 193.847656 304.875 196.550781 303.167969 199.199219 301.425781 C 201.410156 299.96875 203.484375 298.289062 204.628906 295.917969 C 205.925781 293.242188 208.105469 293.101562 210.484375 293.253906 C 212.8125 293.410156 214.132812 294.617188 214.65625 296.867188 C 214.683594 296.96875 214.695312 297.101562 214.65625 297.1875 C 212.757812 300.996094 214.246094 306.496094 217.90625 309.277344 C 219.371094 310.390625 221.027344 311.167969 222.554688 312.160156 C 225.734375 314.210938 226.464844 316.816406 224.746094 320.199219 C 223.238281 323.167969 221.019531 325.648438 219.082031 328.34375 C 219.007812 327.78125 219.179688 327.316406 219.390625 326.828125 C 220.222656 324.871094 220.925781 322.863281 221.421875 320.789062 C 222.125 317.84375 221.28125 315.324219 219.160156 313.179688 C 217.519531 311.515625 215.667969 310.050781 214.328125 308.085938 C 212.644531 305.625 211.890625 302.9375 212.085938 299.96875 C 212.105469 299.695312 212.226562 299.394531 211.945312 299.03125 C 210.429688 301.953125 209.996094 304.957031 210.542969 308.117188 C 211.109375 311.355469 213.261719 313.648438 215.488281 316.121094 C 210.09375 314.398438 205.9375 312.996094 206.566406 305.171875 C 200.527344 312.828125 203.390625 321.332031 210.511719 325.207031 C 204.367188 324.804688 197.789062 319.632812 201.605469 309.15625 C 199.347656 310.988281 197.816406 314.007812 197.1875 317.882812 C 196.101562 315.636719 196.394531 312.734375 197.972656 310.070312 C 199.019531 308.300781 200.453125 306.832031 201.773438 305.277344 C 203.328125 303.449219 204.320312 301.707031 204.890625 299.488281 C 203.300781 302.1875 200.707031 303.5 197.964844 304.65625 C 195.933594 305.503906 194.164062 306.746094 192.816406 308.519531 C 192.324219 308.527344 192.359375 308.265625 192.492188 307.953125 Z M 192.492188 307.953125" fill="#fdfdfd"/><path fill-rule="nonzero" fill-opacity="1" d="M 152.472656 296.96875 C 150.597656 290.359375 147.953125 283.941406 145.921875 277.3125 C 144.03125 271.175781 142.316406 265.003906 141.730469 258.578125 C 141.605469 257.195312 141.523438 255.808594 141.460938 254.414062 C 142.320312 257.914062 142.851562 261.5 144.328125 264.828125 C 143.523438 258.515625 143.601562 252.238281 144.667969 245.953125 C 145.371094 247.160156 145.433594 248.53125 145.695312 249.824219 C 147.109375 256.921875 149.515625 263.691406 152.371094 270.316406 C 153.855469 273.761719 155.222656 277.238281 154.894531 281.105469 C 154.574219 284.871094 153.855469 288.578125 153.257812 292.304688 C 152.996094 293.886719 152.726562 295.460938 152.472656 296.96875 Z M 152.472656 296.96875" fill="#fcfefd"/><path fill-rule="nonzero" fill-opacity="1" d="M 168.085938 207.789062 C 167.304688 208.957031 166.527344 210.121094 165.757812 211.292969 C 165.535156 211.636719 165.300781 211.570312 164.992188 211.402344 C 152.582031 204.894531 140.167969 198.386719 127.738281 191.90625 C 126.980469 191.511719 127.246094 191.222656 127.609375 190.75 C 130.742188 186.695312 133.859375 182.625 136.976562 178.558594 C 138.175781 176.996094 138.171875 176.996094 140.089844 178.042969 C 137.714844 181.210938 135.355469 184.363281 132.988281 187.519531 C 132.542969 188.109375 132.183594 188.777344 131.660156 189.28125 C 130.621094 190.300781 131.148438 190.679688 132.167969 191.203125 C 143.402344 196.980469 154.613281 202.789062 165.816406 208.621094 C 166.335938 208.886719 166.636719 208.976562 166.976562 208.433594 C 167.179688 208.109375 167.480469 207.855469 167.742188 207.574219 C 167.855469 207.640625 167.96875 207.714844 168.085938 207.789062 Z M 168.085938 207.789062" fill="#fcfcfc"/><path fill-rule="nonzero" fill-opacity="1" d="M 162.472656 313.667969 C 159.882812 308.675781 157.007812 303.878906 154.585938 298.84375 C 154.351562 298.363281 154.359375 297.972656 154.585938 297.496094 C 155.269531 296.089844 155.925781 294.675781 156.5625 293.25 C 156.785156 292.753906 156.964844 292.484375 157.617188 292.71875 C 159.589844 293.417969 161.554688 294.09375 163.332031 295.234375 C 164.839844 296.199219 165.695312 297.566406 166.167969 299.285156 C 167.433594 303.976562 165.972656 309.175781 162.472656 313.667969 Z M 162.472656 313.667969" fill="#fdfdfd"/><path fill-rule="nonzero" fill-opacity="1" d="M 201.109375 275.625 C 201.828125 272.101562 204.199219 270.640625 207.574219 270.097656 C 211.726562 269.425781 215.816406 268.855469 219.953125 270.117188 C 221.21875 270.503906 221.992188 271.109375 222.332031 272.480469 C 222.984375 275.082031 223.84375 277.628906 224.6875 280.457031 C 222.835938 278.464844 221.160156 276.710938 219.550781 274.902344 C 219.074219 274.367188 218.617188 274.269531 217.960938 274.40625 C 215.667969 274.875 213.359375 275.304688 211.054688 275.730469 C 210.203125 275.894531 209.847656 276.769531 210.425781 277.421875 C 210.613281 277.628906 211.019531 277.683594 210.96875 278.0625 C 210.738281 279.699219 210.707031 281.402344 210.070312 282.910156 C 209.71875 283.734375 208.660156 283.125 207.9375 283.15625 C 207.285156 283.191406 207.601562 282.574219 207.601562 282.253906 C 207.609375 280.558594 207.660156 278.867188 207.6875 277.171875 C 207.695312 276.554688 207.875 275.878906 206.769531 276.460938 C 205.957031 276.886719 204.992188 276.394531 204.085938 276.308594 C 203.203125 276.222656 202.324219 275.851562 201.417969 276.207031 C 200.933594 276.207031 200.976562 275.945312 201.109375 275.625 Z M 201.109375 275.625" fill="#fdfdfd"/><path fill-rule="nonzero" fill-opacity="1" d="M 219.71875 289.589844 C 218.746094 287.398438 217.054688 286.320312 214.921875 285.796875 C 214.488281 285.691406 213.957031 285.609375 213.925781 284.960938 C 213.902344 284.558594 213.574219 284.570312 213.273438 284.484375 C 212.738281 284.328125 212.199219 284.136719 211.710938 283.875 C 211.054688 283.527344 211.261719 282.910156 211.382812 282.375 C 211.511719 281.769531 211.964844 281.878906 212.414062 281.957031 C 213.691406 282.179688 213.695312 282.171875 213.757812 280.65625 C 214.957031 281.074219 216.128906 281.433594 217.277344 281.882812 C 217.953125 282.144531 218.429688 282.089844 219.027344 281.601562 C 220.832031 280.113281 221.144531 280.148438 223.089844 281.523438 C 225.734375 283.390625 225.734375 283.390625 223.398438 285.644531 C 222.105469 286.875 220.796875 288.074219 219.71875 289.589844 Z M 219.71875 289.589844" fill="#fcfdfd"/><path fill-rule="nonzero" fill-opacity="1" d="M 167.769531 194.199219 C 172.691406 195.554688 177.324219 197.558594 181.824219 199.894531 C 182.527344 200.257812 182.078125 200.597656 181.871094 200.902344 C 180.664062 202.648438 179.4375 204.378906 178.210938 206.113281 C 176.3125 208.808594 174.382812 211.476562 172.523438 214.203125 C 171.632812 215.515625 171 214.214844 170.390625 213.980469 C 169.613281 213.6875 170.417969 213.203125 170.621094 212.914062 C 173.226562 209.183594 175.835938 205.457031 178.523438 201.777344 C 179.128906 200.953125 178.894531 200.6875 178.128906 200.289062 C 174.976562 198.65625 171.933594 196.828125 168.902344 194.964844 C 168.519531 194.722656 168.152344 194.453125 167.769531 194.199219 Z M 167.769531 194.199219" fill="#fafbfb"/><path fill-rule="nonzero" fill-opacity="1" d="M 143.59375 238.160156 C 144.96875 235.96875 146.371094 233.730469 147.773438 231.492188 C 147.933594 231.238281 148.128906 230.976562 148.1875 230.695312 C 148.308594 230.15625 148.148438 229.613281 147.800781 229.238281 C 147.429688 228.84375 147.109375 229.359375 146.792969 229.5 C 145.199219 230.183594 143.601562 230.875 142.054688 231.640625 C 141.242188 232.039062 140.8125 231.78125 140.355469 231.109375 C 139.101562 229.28125 139.089844 229.308594 140.988281 228.289062 C 142.667969 227.390625 144.351562 226.480469 146.007812 225.527344 C 146.566406 225.207031 146.839844 225.21875 147.230469 225.816406 C 148.324219 227.496094 149.128906 229.320312 150.074219 231.074219 C 150.289062 231.472656 150.121094 231.734375 149.957031 232.035156 C 149.441406 232.984375 148.859375 233.910156 148.410156 234.894531 C 147.457031 236.960938 146.175781 238.5 143.59375 238.160156 Z M 143.59375 238.160156" fill="#fbfbfb"/><path fill-rule="nonzero" fill-opacity="1" d="M 229.449219 333.367188 C 231.078125 331.949219 231.960938 330.207031 232.808594 328.445312 C 233.027344 327.980469 233.148438 327.714844 233.707031 328.082031 C 237.824219 330.816406 242.222656 333.113281 246.257812 335.988281 C 246.425781 336.109375 246.554688 336.289062 246.863281 336.617188 C 240.996094 335.324219 235.355469 334.09375 229.449219 333.367188 Z M 229.449219 333.367188" fill="#fcfdfd"/><path fill-rule="nonzero" fill-opacity="1" d="M 231.59375 268.140625 C 225.625 263.675781 216.746094 263.027344 210.886719 266.726562 C 212.082031 263.863281 215.957031 262.542969 219.578125 262.472656 C 224.472656 262.371094 228.816406 263.683594 231.59375 268.140625 Z M 231.59375 268.140625" fill="#fafbfb"/><path fill-rule="nonzero" fill-opacity="1" d="M 206.011719 281.535156 C 206.21875 283.007812 205.761719 284.324219 205.863281 285.65625 C 205.910156 286.28125 205.386719 286.300781 205.003906 286.449219 C 203.109375 287.15625 201.453125 288.203125 200.191406 289.972656 C 200.042969 289.15625 200.0625 288.378906 199.761719 287.765625 C 198.929688 286.09375 199.640625 284.785156 200.527344 283.453125 C 200.820312 283.015625 201.136719 282.800781 201.59375 283.105469 C 202.859375 283.933594 203.824219 283.472656 204.730469 282.472656 C 205.039062 282.132812 205.480469 281.910156 206.011719 281.535156 Z M 206.011719 281.535156" fill="#fbfcfb"/><path fill-rule="nonzero" fill-opacity="1" d="M 240.0625 323.613281 C 239.105469 320.824219 239.574219 318.023438 240.097656 315.261719 C 240.933594 310.859375 240.660156 306.730469 237.75 303.074219 C 237.714844 303.03125 237.761719 302.925781 237.777344 302.84375 C 242.113281 306.070312 243.28125 309.914062 241.691406 315.550781 C 241 318.003906 240.136719 320.429688 240.351562 323.042969 C 240.398438 323.308594 240.566406 323.632812 240.0625 323.613281 Z M 240.0625 323.613281" fill="#f9fafa"/><path fill-rule="nonzero" fill-opacity="1" d="M 224.445312 296.519531 C 220.765625 296.296875 217.671875 295.011719 215.527344 291.800781 C 213.648438 289 213.449219 288.945312 210.410156 288.390625 C 213.234375 287.296875 215.632812 287.949219 217.324219 290.402344 C 219.167969 293.066406 221.382812 295.246094 224.445312 296.519531 Z M 224.445312 296.519531" fill="#fafafb"/><path fill-rule="nonzero" fill-opacity="1" d="M 207.351562 288.691406 C 205.21875 289.394531 204.328125 291.238281 203.242188 292.878906 C 201.3125 295.796875 199.199219 297.316406 195.914062 298.046875 C 197.234375 297.128906 198.386719 296.035156 199.367188 294.761719 C 200.367188 293.457031 201.363281 292.148438 202.34375 290.824219 C 203.570312 289.148438 205.214844 288.410156 207.351562 288.691406 Z M 207.351562 288.691406" fill="#f8f9f9"/><path fill-rule="nonzero" fill-opacity="1" d="M 230.890625 280.109375 C 237.292969 280.609375 241.585938 286.261719 239.5 292.878906 C 239.398438 286.546875 235.53125 283.164062 230.890625 280.109375 Z M 230.890625 280.109375" fill="#f9fafa"/><path fill-rule="nonzero" fill-opacity="1" d="M 223.277344 306.726562 C 225.332031 306.917969 227.363281 307.160156 229.21875 308.058594 C 231.660156 309.238281 232.789062 311.410156 232.34375 314.03125 C 232.21875 314.792969 231.996094 315.539062 231.742188 316.320312 C 231.25 311.039062 227.441406 308.75 223.277344 306.726562 Z M 223.277344 306.726562" fill="#f8f9f9"/><path fill-rule="nonzero" fill-opacity="1" d="M 137.433594 239.222656 C 136.640625 238.546875 135.984375 238.21875 135.683594 237.691406 C 134.710938 235.980469 133.175781 235.773438 131.464844 235.839844 C 130.640625 235.875 129.816406 235.847656 128.964844 235.847656 C 129.574219 233.734375 130.035156 233.386719 132.0625 233.433594 C 135.582031 233.515625 135.582031 233.515625 136.707031 236.90625 C 136.921875 237.550781 137.117188 238.207031 137.433594 239.222656 Z M 137.433594 239.222656" fill="#f9fafa"/><path fill-rule="nonzero" fill-opacity="1" d="M 148.113281 324.128906 C 149.8125 327.222656 151.5 330.328125 153.203125 333.421875 C 153.433594 333.839844 153.359375 334.253906 153.277344 334.683594 C 153.011719 336.042969 152.753906 337.394531 152.46875 338.910156 C 151.992188 337.542969 151.09375 336.230469 151.246094 335.058594 C 151.394531 333.917969 151.21875 333.046875 150.816406 332.121094 C 149.785156 329.742188 148.867188 327.324219 148 324.878906 C 147.933594 324.683594 147.886719 324.484375 147.832031 324.28125 C 147.921875 324.242188 148.019531 324.179688 148.113281 324.128906 Z M 148.113281 324.128906" fill="#f7f8f9"/><path fill-rule="nonzero" fill-opacity="1" d="M 144.367188 221.472656 C 143.433594 223.015625 142.355469 223.90625 140.4375 223.261719 C 139.222656 222.851562 137.902344 222.726562 136.628906 222.503906 C 136.117188 222.417969 136.058594 222.332031 136.246094 221.78125 C 136.667969 220.542969 137.246094 219.957031 138.679688 220.332031 C 140.539062 220.828125 142.457031 221.105469 144.367188 221.472656 Z M 144.367188 221.472656" fill="#fafbfb"/><path fill-rule="nonzero" fill-opacity="1" d="M 90.277344 296.390625 C 90.800781 295.722656 91.464844 295.660156 92.109375 295.734375 C 95.105469 296.0625 97.445312 297.484375 98.902344 300.144531 C 99.492188 301.222656 99.613281 302.390625 98.453125 303.273438 C 97.347656 299.125 94.074219 297.519531 90.277344 296.390625 Z M 90.277344 296.390625" fill="#f9f9fa"/><path fill-rule="nonzero" fill-opacity="1" d="M 236.410156 296.625 C 236.222656 292.03125 233.710938 288.785156 230.339844 285.945312 C 235.757812 286.648438 237.972656 290.523438 236.410156 296.625 Z M 236.410156 296.625" fill="#f6f7f8"/><path fill-rule="nonzero" fill-opacity="1" d="M 137.726562 233.734375 C 137.203125 231.378906 135.480469 231.539062 133.832031 231.519531 C 132.972656 231.511719 132.113281 231.417969 131.242188 231.355469 C 132.082031 228.785156 133.722656 228.195312 137.050781 229.207031 C 137.910156 229.472656 138.371094 232 137.726562 233.734375 Z M 137.726562 233.734375" fill="#f8fafa"/><path fill-rule="nonzero" fill-opacity="1" d="M 235.15625 306.203125 C 232.71875 305.257812 230.582031 304.480469 228.480469 303.601562 C 226.914062 302.945312 225.707031 301.832031 224.96875 300.277344 C 224.808594 299.929688 224.304688 299.40625 224.792969 299.144531 C 225.304688 298.878906 226.027344 298.582031 226.570312 299.28125 C 227.242188 300.132812 228 300.894531 228.8125 301.625 C 230.535156 303.171875 232.652344 304.144531 234.429688 305.597656 C 234.585938 305.726562 234.738281 305.855469 235.15625 306.203125 Z M 235.15625 306.203125" fill="#f8f9f9"/><path fill-rule="nonzero" fill-opacity="1" d="M 140.222656 294.964844 C 142.007812 296.089844 143.640625 297.121094 145.285156 298.140625 C 145.773438 298.441406 145.855469 298.871094 145.847656 299.394531 C 145.835938 301.757812 145.839844 304.125 145.839844 306.5625 C 143.320312 303.058594 140.679688 297.664062 140.222656 294.964844 Z M 140.222656 294.964844" fill="#f7f8f8"/><path fill-rule="nonzero" fill-opacity="1" d="M 133.417969 226.976562 C 134.953125 224.253906 134.953125 224.246094 137.679688 224.898438 C 138.632812 225.125 139.570312 225.386719 140.515625 225.632812 C 138.578125 228.316406 135.964844 226.894531 133.417969 226.976562 Z M 133.417969 226.976562" fill="#f8fafa"/><path fill-rule="nonzero" fill-opacity="1" d="M 229.253906 299.246094 C 228.148438 296.859375 227.402344 294.433594 227.394531 291.875 C 229.824219 294.167969 230.445312 296.511719 229.253906 299.246094 Z M 229.253906 299.246094" fill="#f4f5f5"/><path fill-rule="nonzero" fill-opacity="1" d="M 172.628906 381.0625 C 172.503906 379.882812 172.382812 378.703125 171.925781 377.589844 C 170.820312 372.421875 169.867188 367.230469 169.3125 361.96875 C 168.164062 351.226562 167.648438 340.453125 167.425781 329.65625 C 167.566406 328.777344 167.5 327.914062 167.320312 327.042969 C 167.234375 328.261719 166.777344 329.449219 166.972656 330.695312 C 167.003906 330.621094 167.039062 330.539062 167.070312 330.46875 C 167.066406 330.554688 167.039062 330.636719 166.972656 330.695312 C 166.855469 333.296875 166.730469 335.894531 166.621094 338.503906 C 166.320312 346.25 166.75 353.941406 168.011719 361.59375 C 168.9375 367.242188 170.285156 372.796875 171.679688 378.339844 C 171.839844 379.304688 172.085938 380.230469 172.628906 381.0625 Z M 172.628906 381.0625" fill="#ed2f40"/><path fill-rule="nonzero" fill-opacity="1" d="M 192.492188 307.953125 C 192.558594 308.160156 192.488281 308.441406 192.800781 308.519531 C 192.414062 309.226562 192.023438 309.929688 191.507812 310.851562 C 191.660156 309.648438 191.9375 308.753906 192.492188 307.953125 Z M 192.492188 307.953125" fill="#b4b5b4"/><path fill-rule="nonzero" fill-opacity="1" d="M 201.109375 275.625 C 201.191406 275.824219 201.082031 276.132812 201.417969 276.195312 C 201.078125 276.730469 200.734375 277.261719 200.390625 277.796875 C 200.359375 276.953125 200.679688 276.269531 201.109375 275.625 Z M 201.109375 275.625" fill="#a5a7a6"/><path fill-rule="nonzero" fill-opacity="1" d="M 240.0625 323.613281 C 240.15625 323.425781 240.25 323.238281 240.351562 323.050781 C 240.53125 323.6875 240.71875 324.324219 240.902344 324.957031 C 240.371094 324.625 240.136719 324.160156 240.0625 323.613281 Z M 240.0625 323.613281" fill="#b2b4b3"/><g clip-path="url(#f35b70c0ac)"><path fill-rule="nonzero" fill-opacity="1" d="M 209.550781 401.765625 C 201.285156 391.097656 194.484375 379.574219 189.355469 367.082031 C 187.839844 363.398438 186.453125 359.671875 185.296875 355.835938 C 186.167969 364.789062 189.011719 373.347656 190.628906 382.167969 C 189.710938 381.226562 189.269531 380.054688 188.804688 378.921875 C 183.734375 366.632812 180.515625 353.886719 179.140625 340.660156 C 178.359375 333.085938 178.121094 325.488281 177.875 317.890625 C 177.789062 315.289062 177.714844 312.683594 176.9375 310.148438 C 175.949219 306.917969 173.683594 304.703125 171.042969 302.410156 C 171.691406 305.988281 172.175781 309.324219 172.484375 312.683594 C 173 318.265625 173.167969 323.867188 173.476562 329.460938 C 174.429688 346.605469 176.769531 363.492188 182.339844 379.820312 C 184.714844 386.777344 187.589844 393.503906 190.964844 400.03125 C 191.183594 400.46875 191.398438 400.910156 191.667969 401.460938 C 194.710938 402.015625 201.566406 402.992188 210.140625 402.425781 C 209.933594 402.242188 209.746094 402.015625 209.550781 401.765625 Z M 209.550781 401.765625" fill="#ed2f40"/></g><path fill-rule="nonzero" fill-opacity="1" d="M 242.785156 339.292969 C 234.515625 338.058594 225.78125 339.226562 221.515625 342.046875 C 223.023438 344.011719 224.941406 345.476562 227.054688 346.710938 C 231.976562 349.585938 237.402344 350.878906 242.960938 351.804688 C 247.820312 352.613281 252.535156 353.96875 256.746094 356.667969 C 257.25 356.992188 257.734375 357.359375 258.402344 357.828125 C 257.746094 354.464844 256.660156 351.414062 255.226562 348.070312 C 257.71875 349.878906 259.671875 351.691406 261.421875 353.71875 C 263.492188 356.125 265.398438 358.652344 266.964844 361.421875 C 267.648438 359.839844 268.308594 358.195312 268.929688 356.496094 C 262.65625 346.839844 254.066406 340.976562 242.785156 339.292969 Z M 242.785156 339.292969" fill="#fcfdfd"/><path fill-rule="nonzero" fill-opacity="1" d="M 210.878906 365.894531 C 208.613281 362.839844 206.453125 359.703125 204.242188 356.601562 C 204.074219 356.207031 204.261719 356.160156 204.589844 356.238281 C 215.265625 368.269531 226.921875 379.324219 238.585938 390.367188 C 239.40625 391.140625 240.175781 391.964844 240.929688 392.792969 C 240.953125 392.828125 240.980469 392.855469 241.007812 392.886719 C 243.296875 391.46875 245.546875 389.851562 247.753906 388.015625 C 247.660156 387.96875 247.558594 387.917969 247.445312 387.847656 C 241.015625 383.863281 234.820312 379.53125 228.933594 374.789062 C 218.710938 366.554688 209.382812 357.414062 201.738281 346.691406 C 196.609375 339.488281 192.179688 331.886719 189.777344 323.277344 C 189.542969 322.4375 189.199219 321.59375 189.179688 320.75 C 189.132812 319.140625 188.335938 318.164062 187.042969 317.332031 C 186.210938 316.796875 185.855469 316.769531 185.726562 317.808594 C 185.707031 317.96875 185.640625 318.128906 185.539062 318.464844 C 184.285156 316.972656 183.667969 315.277344 182.816406 313.722656 C 182.59375 313.582031 182.488281 313.394531 182.429688 313.21875 C 182.460938 313.511719 182.449219 313.894531 182.546875 314.257812 C 185.332031 325.394531 189.179688 336.148438 194.164062 346.496094 C 203.261719 365.402344 215.230469 382.300781 229.710938 397.457031 C 229.917969 397.679688 230.125 397.902344 230.347656 398.140625 C 232.902344 397.175781 235.464844 396.019531 238.011719 394.632812 C 237.902344 394.550781 237.804688 394.464844 237.710938 394.375 C 228.222656 385.410156 218.707031 376.445312 210.878906 365.894531 Z M 210.878906 365.894531" fill="#ed2f40"/><path fill-rule="nonzero" fill-opacity="1" d="M 240.933594 392.792969 C 240.175781 391.964844 239.40625 391.144531 238.59375 390.367188 C 226.925781 379.324219 215.273438 368.269531 204.597656 356.238281 C 204.269531 356.152344 204.082031 356.207031 204.25 356.601562 C 206.453125 359.703125 208.613281 362.839844 210.886719 365.894531 C 218.710938 376.445312 228.226562 385.410156 237.730469 394.375 C 237.824219 394.464844 237.925781 394.550781 238.03125 394.628906 C 239.03125 394.089844 240.03125 393.5 241.027344 392.882812 C 240.996094 392.863281 240.960938 392.828125 240.933594 392.792969 Z M 240.933594 392.792969" fill="#ed2f40"/><path fill-rule="nonzero" fill-opacity="1" d="M 195.617188 327.566406 C 195.402344 327.410156 195.203125 327.25 195.089844 327.070312 C 195.1875 327.285156 195.324219 327.539062 195.355469 327.839844 C 197.816406 333.964844 201.316406 339.472656 205.382812 344.652344 C 213.46875 354.960938 223.585938 362.972656 234.335938 370.273438 C 240.378906 374.375 246.761719 377.898438 253.226562 381.269531 C 253.554688 381.4375 253.875 381.617188 254.210938 381.792969 C 256.527344 379.203125 258.746094 376.308594 260.816406 373.074219 C 245.378906 367.625 230.824219 360.488281 217.894531 350.335938 C 209.480469 343.730469 201.976562 336.191406 195.617188 327.566406 Z M 195.617188 327.566406" fill="#ed2f40"/><path fill-rule="nonzero" fill-opacity="1" d="M 195.089844 327.070312 C 195.0625 327.015625 195.035156 326.960938 195.015625 326.914062 C 195.035156 326.96875 195.054688 327.015625 195.089844 327.070312 Z M 195.089844 327.070312" fill="#ed2f40"/><path fill-rule="nonzero" fill-opacity="1" d="M 188.738281 349.0625 C 188.738281 349.0625 203.054688 382.640625 223.960938 400.207031 C 223.960938 400.207031 221.003906 400.984375 218.941406 401.332031 C 218.941406 401.332031 196.488281 374.820312 188.738281 349.0625 Z M 188.738281 349.0625" fill="#ed2f40"/><g fill-opacity="1" fill="#ffffff"><g transform="translate(281.635546, 329.944145)"><g><path d="M 41.53125 -63.8125 L 41.53125 -51.046875 L 19.1875 -51.046875 L 19.1875 -38.359375 L 39.828125 -38.359375 L 39.828125 -25.59375 L 19.1875 -25.59375 L 19.1875 0 L 4.640625 0 L 4.640625 -63.8125 Z M 41.53125 -63.8125"/></g></g></g><g fill-opacity="1" fill="#ffffff"><g transform="translate(325.487963, 329.944145)"><g><path d="M 8.390625 -4.71875 C 3.984375 -8.632812 1.78125 -13.660156 1.78125 -19.796875 C 1.78125 -25.929688 4.070312 -30.972656 8.65625 -34.921875 C 13.25 -38.867188 18.921875 -40.84375 25.671875 -40.84375 C 32.328125 -40.84375 37.9375 -38.851562 42.5 -34.875 C 47.0625 -30.90625 49.34375 -25.878906 49.34375 -19.796875 C 49.34375 -13.710938 47.113281 -8.695312 42.65625 -4.75 C 38.195312 -0.8125 32.535156 1.15625 25.671875 1.15625 C 18.554688 1.15625 12.796875 -0.800781 8.390625 -4.71875 Z M 18.984375 -26.53125 C 17.203125 -24.78125 16.3125 -22.535156 16.3125 -19.796875 C 16.3125 -17.066406 17.160156 -14.835938 18.859375 -13.109375 C 20.566406 -11.378906 22.8125 -10.515625 25.59375 -10.515625 C 28.28125 -10.515625 30.484375 -11.390625 32.203125 -13.140625 C 33.929688 -14.898438 34.796875 -17.117188 34.796875 -19.796875 C 34.796875 -22.535156 33.90625 -24.78125 32.125 -26.53125 C 30.351562 -28.28125 28.175781 -29.15625 25.59375 -29.15625 C 22.96875 -29.15625 20.765625 -28.28125 18.984375 -26.53125 Z M 18.984375 -26.53125"/></g></g></g><g fill-opacity="1" fill="#ffffff"><g transform="translate(376.610445, 329.944145)"><g><path d="M 4.640625 0 L 4.640625 -39.671875 L 18.328125 -39.671875 L 18.328125 -33.953125 L 18.484375 -33.953125 C 18.585938 -34.160156 18.753906 -34.414062 18.984375 -34.71875 C 19.210938 -35.03125 19.710938 -35.570312 20.484375 -36.34375 C 21.265625 -37.125 22.09375 -37.820312 22.96875 -38.4375 C 23.84375 -39.0625 24.976562 -39.617188 26.375 -40.109375 C 27.769531 -40.597656 29.1875 -40.84375 30.625 -40.84375 C 32.125 -40.84375 33.59375 -40.632812 35.03125 -40.21875 C 36.476562 -39.800781 37.535156 -39.390625 38.203125 -38.984375 L 39.296875 -38.359375 L 33.5625 -26.765625 C 31.863281 -28.203125 29.492188 -28.921875 26.453125 -28.921875 C 24.796875 -28.921875 23.375 -28.5625 22.1875 -27.84375 C 21.007812 -27.125 20.175781 -26.25 19.6875 -25.21875 C 19.195312 -24.1875 18.847656 -23.304688 18.640625 -22.578125 C 18.429688 -21.859375 18.328125 -21.289062 18.328125 -20.875 L 18.328125 0 Z M 4.640625 0"/></g></g></g><g fill-opacity="1" fill="#ffffff"><g transform="translate(415.126318, 329.944145)"><g><path d="M 2.859375 9.75 L 14.078125 4.25 C 16.140625 7.65625 19.722656 9.359375 24.828125 9.359375 C 27.203125 9.359375 29.40625 8.597656 31.4375 7.078125 C 33.476562 5.554688 34.5 3.222656 34.5 0.078125 L 34.5 -2.859375 C 32.070312 -0.179688 27.738281 1.15625 21.5 1.15625 C 15.78125 1.15625 11.0625 -0.863281 7.34375 -4.90625 C 3.632812 -8.957031 1.78125 -13.921875 1.78125 -19.796875 C 1.78125 -25.671875 3.632812 -30.644531 7.34375 -34.71875 C 11.0625 -38.800781 15.78125 -40.84375 21.5 -40.84375 C 26.601562 -40.84375 30.859375 -39.269531 34.265625 -36.125 L 34.5 -36.125 L 34.5 -39.671875 L 48.1875 -39.671875 L 48.1875 1.078125 C 48.1875 7.523438 46.046875 12.5 41.765625 16 C 37.484375 19.507812 31.835938 21.265625 24.828125 21.265625 C 13.484375 21.265625 6.160156 17.425781 2.859375 9.75 Z M 18.984375 -26.53125 C 17.203125 -24.78125 16.3125 -22.535156 16.3125 -19.796875 C 16.3125 -17.066406 17.160156 -14.835938 18.859375 -13.109375 C 20.566406 -11.378906 22.8125 -10.515625 25.59375 -10.515625 C 28.28125 -10.515625 30.484375 -11.390625 32.203125 -13.140625 C 33.929688 -14.898438 34.796875 -17.117188 34.796875 -19.796875 C 34.796875 -22.535156 33.90625 -24.78125 32.125 -26.53125 C 30.351562 -28.28125 28.175781 -29.15625 25.59375 -29.15625 C 22.96875 -29.15625 20.765625 -28.28125 18.984375 -26.53125 Z M 18.984375 -26.53125"/></g></g></g><g fill-opacity="1" fill="#ffffff"><g transform="translate(467.950301, 329.944145)"><g><path d="M 44.78125 -17.9375 L 16.015625 -17.9375 C 16.015625 -15.15625 16.914062 -13.09375 18.71875 -11.75 C 20.519531 -10.414062 22.476562 -9.75 24.59375 -9.75 C 26.8125 -9.75 28.5625 -10.046875 29.84375 -10.640625 C 31.132812 -11.234375 32.609375 -12.40625 34.265625 -14.15625 L 44.15625 -9.203125 C 40.03125 -2.296875 33.175781 1.15625 23.59375 1.15625 C 17.613281 1.15625 12.484375 -0.890625 8.203125 -4.984375 C 3.921875 -9.085938 1.78125 -14.023438 1.78125 -19.796875 C 1.78125 -25.578125 3.921875 -30.53125 8.203125 -34.65625 C 12.484375 -38.78125 17.613281 -40.84375 23.59375 -40.84375 C 29.882812 -40.84375 35 -39.023438 38.9375 -35.390625 C 42.882812 -31.753906 44.859375 -26.554688 44.859375 -19.796875 C 44.859375 -18.867188 44.832031 -18.25 44.78125 -17.9375 Z M 16.390625 -25.515625 L 31.484375 -25.515625 C 31.171875 -27.578125 30.351562 -29.160156 29.03125 -30.265625 C 27.71875 -31.378906 26.03125 -31.9375 23.96875 -31.9375 C 21.707031 -31.9375 19.90625 -31.34375 18.5625 -30.15625 C 17.21875 -28.976562 16.492188 -27.429688 16.390625 -25.515625 Z M 16.390625 -25.515625"/></g></g></g><g fill-opacity="1" fill="#ffffff"><g transform="translate(514.587, 329.944145)"><g><path d="M 38.59375 -13.140625 C 40.8125 -13.140625 42.960938 -13.472656 45.046875 -14.140625 C 47.140625 -14.816406 48.675781 -15.46875 49.65625 -16.09375 L 51.125 -17.09375 L 57.3125 -4.71875 C 57.101562 -4.5625 56.816406 -4.351562 56.453125 -4.09375 C 56.097656 -3.84375 55.257812 -3.367188 53.9375 -2.671875 C 52.625 -1.972656 51.21875 -1.363281 49.71875 -0.84375 C 48.226562 -0.332031 46.269531 0.125 43.84375 0.53125 C 41.425781 0.945312 38.925781 1.15625 36.34375 1.15625 C 30.414062 1.15625 24.796875 -0.296875 19.484375 -3.203125 C 14.179688 -6.117188 9.90625 -10.128906 6.65625 -15.234375 C 3.40625 -20.335938 1.78125 -25.851562 1.78125 -31.78125 C 1.78125 -36.269531 2.734375 -40.578125 4.640625 -44.703125 C 6.546875 -48.828125 9.082031 -52.359375 12.25 -55.296875 C 15.425781 -58.234375 19.128906 -60.578125 23.359375 -62.328125 C 27.585938 -64.085938 31.914062 -64.96875 36.34375 -64.96875 C 40.46875 -64.96875 44.269531 -64.476562 47.75 -63.5 C 51.238281 -62.519531 53.703125 -61.539062 55.140625 -60.5625 L 57.3125 -59.09375 L 51.125 -46.71875 C 50.757812 -47.019531 50.21875 -47.390625 49.5 -47.828125 C 48.78125 -48.273438 47.335938 -48.859375 45.171875 -49.578125 C 43.003906 -50.296875 40.8125 -50.65625 38.59375 -50.65625 C 35.082031 -50.65625 31.9375 -50.085938 29.15625 -48.953125 C 26.375 -47.816406 24.171875 -46.320312 22.546875 -44.46875 C 20.921875 -42.613281 19.679688 -40.613281 18.828125 -38.46875 C 17.984375 -36.332031 17.5625 -34.15625 17.5625 -31.9375 C 17.5625 -27.09375 19.378906 -22.75 23.015625 -18.90625 C 26.648438 -15.0625 31.84375 -13.140625 38.59375 -13.140625 Z M 38.59375 -13.140625"/></g></g></g><g fill-opacity="1" fill="#ffffff"><g transform="translate(572.824864, 329.944145)"><g><path d="M 8.390625 -4.71875 C 3.984375 -8.632812 1.78125 -13.660156 1.78125 -19.796875 C 1.78125 -25.929688 4.070312 -30.972656 8.65625 -34.921875 C 13.25 -38.867188 18.921875 -40.84375 25.671875 -40.84375 C 32.328125 -40.84375 37.9375 -38.851562 42.5 -34.875 C 47.0625 -30.90625 49.34375 -25.878906 49.34375 -19.796875 C 49.34375 -13.710938 47.113281 -8.695312 42.65625 -4.75 C 38.195312 -0.8125 32.535156 1.15625 25.671875 1.15625 C 18.554688 1.15625 12.796875 -0.800781 8.390625 -4.71875 Z M 18.984375 -26.53125 C 17.203125 -24.78125 16.3125 -22.535156 16.3125 -19.796875 C 16.3125 -17.066406 17.160156 -14.835938 18.859375 -13.109375 C 20.566406 -11.378906 22.8125 -10.515625 25.59375 -10.515625 C 28.28125 -10.515625 30.484375 -11.390625 32.203125 -13.140625 C 33.929688 -14.898438 34.796875 -17.117188 34.796875 -19.796875 C 34.796875 -22.535156 33.90625 -24.78125 32.125 -26.53125 C 30.351562 -28.28125 28.175781 -29.15625 25.59375 -29.15625 C 22.96875 -29.15625 20.765625 -28.28125 18.984375 -26.53125 Z M 18.984375 -26.53125"/></g></g></g><g fill-opacity="1" fill="#ffffff"><g transform="translate(623.947335, 329.944145)"><g><path d="M 4.640625 0 L 4.640625 -39.671875 L 18.328125 -39.671875 L 18.328125 -35.5 L 18.484375 -35.5 C 22.046875 -39.0625 25.835938 -40.84375 29.859375 -40.84375 C 32.742188 -40.84375 35.445312 -40.25 37.96875 -39.0625 C 40.5 -37.875 42.410156 -36.039062 43.703125 -33.5625 C 47.722656 -38.414062 52.101562 -40.84375 56.84375 -40.84375 C 61.070312 -40.84375 64.707031 -39.65625 67.75 -37.28125 C 70.789062 -34.90625 72.3125 -31.191406 72.3125 -26.140625 L 72.3125 0 L 58.625 0 L 58.625 -22.421875 C 58.625 -24.535156 58.039062 -26.300781 56.875 -27.71875 C 55.71875 -29.144531 53.984375 -29.859375 51.671875 -29.859375 C 49.660156 -29.859375 48.125 -29.25 47.0625 -28.03125 C 46.007812 -26.820312 45.429688 -25.367188 45.328125 -23.671875 L 45.328125 0 L 31.640625 0 L 31.640625 -22.421875 C 31.640625 -24.535156 31.054688 -26.300781 29.890625 -27.71875 C 28.734375 -29.144531 26.992188 -29.859375 24.671875 -29.859375 C 22.554688 -29.859375 20.96875 -29.195312 19.90625 -27.875 C 18.851562 -26.5625 18.328125 -25.003906 18.328125 -23.203125 L 18.328125 0 Z M 4.640625 0"/></g></g></g><g fill-opacity="1" fill="#ffffff"><g transform="translate(700.128353, 329.944145)"><g><path d="M 4.640625 0 L 4.640625 -39.671875 L 18.328125 -39.671875 L 18.328125 -35.5 L 18.484375 -35.5 C 22.046875 -39.0625 25.835938 -40.84375 29.859375 -40.84375 C 32.742188 -40.84375 35.445312 -40.25 37.96875 -39.0625 C 40.5 -37.875 42.410156 -36.039062 43.703125 -33.5625 C 47.722656 -38.414062 52.101562 -40.84375 56.84375 -40.84375 C 61.070312 -40.84375 64.707031 -39.65625 67.75 -37.28125 C 70.789062 -34.90625 72.3125 -31.191406 72.3125 -26.140625 L 72.3125 0 L 58.625 0 L 58.625 -22.421875 C 58.625 -24.535156 58.039062 -26.300781 56.875 -27.71875 C 55.71875 -29.144531 53.984375 -29.859375 51.671875 -29.859375 C 49.660156 -29.859375 48.125 -29.25 47.0625 -28.03125 C 46.007812 -26.820312 45.429688 -25.367188 45.328125 -23.671875 L 45.328125 0 L 31.640625 0 L 31.640625 -22.421875 C 31.640625 -24.535156 31.054688 -26.300781 29.890625 -27.71875 C 28.734375 -29.144531 26.992188 -29.859375 24.671875 -29.859375 C 22.554688 -29.859375 20.96875 -29.195312 19.90625 -27.875 C 18.851562 -26.5625 18.328125 -25.003906 18.328125 -23.203125 L 18.328125 0 Z M 4.640625 0"/></g></g></g><g fill-opacity="1" fill="#ffffff"><g transform="translate(776.309371, 329.944145)"><g><path d="M 7.34375 -4.90625 C 3.632812 -8.957031 1.78125 -13.921875 1.78125 -19.796875 C 1.78125 -25.671875 3.632812 -30.644531 7.34375 -34.71875 C 11.0625 -38.800781 15.78125 -40.84375 21.5 -40.84375 C 26.757812 -40.84375 31.09375 -39.191406 34.5 -35.890625 L 34.5 -39.671875 L 48.1875 -39.671875 L 48.1875 0 L 34.65625 0 L 34.65625 -4.484375 L 34.5 -4.484375 C 31.09375 -0.722656 26.757812 1.15625 21.5 1.15625 C 15.78125 1.15625 11.0625 -0.863281 7.34375 -4.90625 Z M 18.984375 -26.53125 C 17.203125 -24.78125 16.3125 -22.535156 16.3125 -19.796875 C 16.3125 -17.066406 17.160156 -14.835938 18.859375 -13.109375 C 20.566406 -11.378906 22.8125 -10.515625 25.59375 -10.515625 C 28.28125 -10.515625 30.484375 -11.390625 32.203125 -13.140625 C 33.929688 -14.898438 34.796875 -17.117188 34.796875 -19.796875 C 34.796875 -22.535156 33.90625 -24.78125 32.125 -26.53125 C 30.351562 -28.28125 28.175781 -29.15625 25.59375 -29.15625 C 22.96875 -29.15625 20.765625 -28.28125 18.984375 -26.53125 Z M 18.984375 -26.53125"/></g></g></g><g fill-opacity="1" fill="#ffffff"><g transform="translate(829.133366, 329.944145)"><g><path d="M 4.640625 0 L 4.640625 -39.671875 L 18.328125 -39.671875 L 18.328125 -35.5 L 18.484375 -35.5 C 22.046875 -39.0625 25.835938 -40.84375 29.859375 -40.84375 C 31.816406 -40.84375 33.757812 -40.582031 35.6875 -40.0625 C 37.625 -39.550781 39.484375 -38.753906 41.265625 -37.671875 C 43.046875 -36.585938 44.488281 -35.050781 45.59375 -33.0625 C 46.695312 -31.082031 47.25 -28.773438 47.25 -26.140625 L 47.25 0 L 33.5625 0 L 33.5625 -22.421875 C 33.5625 -24.484375 32.90625 -26.285156 31.59375 -27.828125 C 30.28125 -29.378906 28.566406 -30.15625 26.453125 -30.15625 C 24.390625 -30.15625 22.519531 -29.359375 20.84375 -27.765625 C 19.164062 -26.171875 18.328125 -24.390625 18.328125 -22.421875 L 18.328125 0 Z M 4.640625 0"/></g></g></g><g fill-opacity="1" fill="#ffffff"><g transform="translate(880.255859, 329.944145)"><g><path d="M 7.34375 -4.90625 C 3.632812 -8.957031 1.78125 -13.921875 1.78125 -19.796875 C 1.78125 -25.671875 3.632812 -30.644531 7.34375 -34.71875 C 11.0625 -38.800781 15.78125 -40.84375 21.5 -40.84375 C 26.757812 -40.84375 31.09375 -39.191406 34.5 -35.890625 L 34.5 -66.515625 L 48.1875 -66.515625 L 48.1875 0 L 34.65625 0 L 34.65625 -4.484375 L 34.5 -4.484375 C 31.09375 -0.722656 26.757812 1.15625 21.5 1.15625 C 15.78125 1.15625 11.0625 -0.863281 7.34375 -4.90625 Z M 18.984375 -26.53125 C 17.203125 -24.78125 16.3125 -22.535156 16.3125 -19.796875 C 16.3125 -17.066406 17.160156 -14.835938 18.859375 -13.109375 C 20.566406 -11.378906 22.8125 -10.515625 25.59375 -10.515625 C 28.28125 -10.515625 30.484375 -11.390625 32.203125 -13.140625 C 33.929688 -14.898438 34.796875 -17.117188 34.796875 -19.796875 C 34.796875 -22.535156 33.90625 -24.78125 32.125 -26.53125 C 30.351562 -28.28125 28.175781 -29.15625 25.59375 -29.15625 C 22.96875 -29.15625 20.765625 -28.28125 18.984375 -26.53125 Z M 18.984375 -26.53125"/></g></g></g><g clip-path="url(#f271367bf6)"><path fill-rule="nonzero" fill-opacity="1" d="M 947.398438 254.339844 C 942.46875 254.339844 938.457031 258.347656 938.457031 263.277344 C 938.457031 268.207031 942.46875 272.21875 947.398438 272.21875 C 952.328125 272.21875 956.339844 268.207031 956.339844 263.277344 C 956.339844 258.347656 952.328125 254.339844 947.398438 254.339844 Z M 947.398438 272.960938 C 946.089844 272.960938 944.824219 272.703125 943.628906 272.199219 C 942.476562 271.710938 941.441406 271.011719 940.554688 270.125 C 939.664062 269.234375 938.964844 268.199219 938.480469 267.046875 C 937.972656 265.851562 937.71875 264.585938 937.71875 263.277344 C 937.71875 261.972656 937.972656 260.703125 938.480469 259.511719 C 938.964844 258.355469 939.664062 257.320312 940.554688 256.433594 C 941.441406 255.542969 942.476562 254.847656 943.628906 254.359375 C 944.824219 253.855469 946.089844 253.597656 947.398438 253.597656 C 948.707031 253.597656 949.972656 253.855469 951.167969 254.359375 C 952.320312 254.847656 953.355469 255.542969 954.242188 256.433594 C 955.132812 257.320312 955.832031 258.355469 956.316406 259.511719 C 956.824219 260.703125 957.078125 261.972656 957.078125 263.277344 C 957.078125 264.585938 956.824219 265.851562 956.316406 267.046875 C 955.832031 268.199219 955.132812 269.234375 954.242188 270.125 C 953.355469 271.011719 952.320312 271.710938 951.167969 272.199219 C 949.972656 272.703125 948.707031 272.960938 947.398438 272.960938" fill="#ffffff"/></g><path fill-rule="nonzero" fill-opacity="1" d="M 943.304688 266.292969 L 943.304688 261.066406 L 941.3125 261.066406 L 941.3125 260.265625 L 946.28125 260.265625 L 946.28125 261.066406 L 944.292969 261.066406 L 944.292969 266.292969 L 943.304688 266.292969" fill="#ffffff"/><path fill-rule="nonzero" fill-opacity="1" d="M 952.496094 266.292969 L 952.496094 263.238281 C 952.496094 262.976562 952.503906 262.683594 952.515625 262.371094 L 952.519531 261.1875 C 952.460938 261.371094 952.03125 262.675781 951.964844 262.851562 L 950.707031 266.292969 L 950.078125 266.292969 L 948.816406 262.851562 C 948.753906 262.675781 948.3125 261.457031 948.253906 261.277344 L 948.269531 262.375 C 948.28125 262.671875 948.285156 262.960938 948.285156 263.230469 L 948.285156 266.292969 L 947.300781 266.292969 L 947.300781 260.265625 L 948.753906 260.265625 L 949.804688 263.15625 C 949.945312 263.542969 950.082031 263.960938 950.210938 264.398438 L 950.386719 264.996094 L 950.566406 264.398438 C 950.679688 264.011719 950.816406 263.597656 950.972656 263.167969 L 952.019531 260.265625 L 953.484375 260.265625 L 953.484375 266.292969 L 952.496094 266.292969" fill="#ffffff"/></svg>